<?xml version="1.0" standalone="no"?>
  <!DOCTYPE svg PUBLIC "-//W3C//DTD SVG 1.1//EN" "http://www.w3.org/Graphics/SVG/1.1/DTD/svg11.dtd" >
  <svg>
  <metadata>
  Created by font-carrier
  </metadata>
  <defs>
  <font id="Bauhaus" horiz-adv-x="15264" vert-adv-y="15264" >
    <font-face
      
      font-family="Bauhaus"
      
      font-weight="400"
      
      font-stretch="normal"
      
      units-per-em="2048"
      
      ascent="1886"
      
      descent="-348"
      
    />
      <missing-glyph />

      

      
      <glyph glyph-name="uni21" unicode="&#x21;" d="M188 326L188 1432L369 1432L369 326L188 326M160 102Q160 153 194 187Q228 221 279 221Q329 221 363 186.50Q397 152 397 102Q397 53 362.50 19.50Q328-14 279-14Q230-14 195 19.50Q160 53 160 102Z"  horiz-adv-x="557" vert-adv-y="2048"  />

      
      <glyph glyph-name="uni22" unicode="&#x22;" d="M524 1436L524 881L385 881L385 1436L524 1436M229 1436L229 881L90 881L90 1436L229 1436Z"  horiz-adv-x="614" vert-adv-y="2048"  />

      
      <glyph glyph-name="uni23" unicode="&#x23;" d="M969 858L709 858L616 594L877 594L969 858M924 1458L762 1004L1018 1004L1182 1458L1346 1458L1186 1004L1487 1004L1436 858L1133 858L1040 596L1362 596L1311 449L989 449L827-4L662-4L823 449L565 449L403-4L238-4L397 449L88 449L141 596L451 596L543 858L213 858L264 1004L596 1004L758 1458L924 1458Z"  horiz-adv-x="1575" vert-adv-y="2048"  />

      
      <glyph glyph-name="uni24" unicode="&#x24;" d="M627 336L637 336Q784 336 784 467Q784 575 627 647L627 336M481 922L481 1208L467 1208Q409 1208 369 1177Q326 1144 326 1087Q326 999 481 922M481-4L481 160L154 160L154 336L481 336L481 723Q335 799 266 864Q158 964 158 1087Q158 1220 255 1299Q344 1371 481 1374L481 1520L627 1520L627 1374L915 1374L915 1208L627 1208L627 856Q786 770 858 702Q973 593 973 461Q973 311 872 232Q781 160 627 160L627-4L481-4Z"  horiz-adv-x="1114" vert-adv-y="2048"  />

      
      <glyph glyph-name="uni25" unicode="&#x25;" d="M1110 322Q1110 254 1158.50 206Q1207 158 1276 158Q1344 158 1392 206Q1440 254 1440 322Q1440 391 1392.50 439Q1345 487 1276 487Q1207 487 1158.50 439Q1110 391 1110 322M952 322Q952 458 1046 551.50Q1140 645 1276 645Q1412 645 1504.50 551.50Q1597 458 1597 322Q1597 186 1504.50 93Q1412 0 1276 0Q1140 0 1046 93Q952 186 952 322M301 0L1233 1432L1364 1432L442 0L301 0M250 1110Q250 1042 298 994Q346 946 414 946Q482 946 531 994Q580 1042 580 1110Q580 1179 532 1226.50Q484 1274 414 1274Q345 1274 297.50 1226.50Q250 1179 250 1110M92 1110Q92 1246 185 1339Q278 1432 414 1432Q550 1432 643.50 1339Q737 1246 737 1110Q737 974 643.50 880Q550 786 414 786Q278 786 185 880Q92 974 92 1110Z"  horiz-adv-x="1683" vert-adv-y="2048"  />

      
      <glyph glyph-name="uni26" unicode="&#x26;" d="M1026 100Q859-14 670-14Q431-14 260.50 150.50Q90 315 90 553Q90 861 346 1032Q282 1119 277 1127Q244 1183 244 1237Q244 1338 334 1390Q408 1432 516 1432L1020 1432L1020 1249L502 1249Q451 1249 451 1219Q451 1204 461 1190L1036 397Q1065 488 1065 563Q1065 733 938 856L1061 983Q1251 799 1251 561Q1251 381 1155 233L1323 0L1096 0L1026 100M449 895Q274 771 274 565Q274 399 389 284.50Q504 170 670 170Q805 170 918 244L449 895Z"  horiz-adv-x="1421" vert-adv-y="2048"  />

      
      <glyph glyph-name="uni27" unicode="&#x27;" d="M229 1436L229 881L90 881L90 1436L229 1436Z"  horiz-adv-x="317" vert-adv-y="2048"  />

      
      <glyph glyph-name="uni28" unicode="&#x28;" d="M596-369Q158 39 158 535Q158 1021 596 1430L696 1290Q334 973 334 532Q334 83 696-229L596-369Z"  horiz-adv-x="786" vert-adv-y="2048"  />

      
      <glyph glyph-name="uni29" unicode="&#x29;" d="M84-229Q446 83 446 532Q446 975 84 1290L186 1430Q623 1024 623 535Q623 36 186-369L84-229Z"  horiz-adv-x="786" vert-adv-y="2048"  />

      
      <glyph glyph-name="uni2a" unicode="&#x2a;" d="M541 1012L582 696L418 696L467 1012L215 819L133 961L430 1075L137 1198L217 1339L467 1139L426 1456L590 1456L541 1135L791 1335L872 1194L578 1071L877 956L793 815L541 1012Z"  horiz-adv-x="1010" vert-adv-y="2048"  />

      
      <glyph glyph-name="uni2b" unicode="&#x2b;" d="M924 1221L924 680L1452 680L1452 541L924 541L924 0L782 0L782 541L254 541L254 680L782 680L782 1221L924 1221Z"  horiz-adv-x="1706" vert-adv-y="2048"  />

      
      <glyph glyph-name="uni2c" unicode="&#x2c;" d="M117-205L203 193L381 193L274-205L117-205Z"  horiz-adv-x="557" vert-adv-y="2048"  />

      
      <glyph glyph-name="uni2d" unicode="&#x2d;" d="M772 565L772 411L-116 411L-116 565L772 565Z"  horiz-adv-x="676" vert-adv-y="2048"  />

      
      <glyph glyph-name="uni2010" unicode="&#x2010;" d="M772 565L772 411L-116 411L-116 565L772 565Z"  horiz-adv-x="676" vert-adv-y="2048"  />

      
      <glyph glyph-name="uni2e" unicode="&#x2e;" d="M160 102Q160 153 194 187Q228 221 279 221Q329 221 363 186.50Q397 152 397 102Q397 53 362.50 19.50Q328-14 279-14Q230-14 195 19.50Q160 53 160 102Z"  horiz-adv-x="557" vert-adv-y="2048"  />

      
      <glyph glyph-name="uni2f" unicode="&#x2f;" d="M109-190L-18-190L471 1456L592 1456L109-190Z"  horiz-adv-x="555" vert-adv-y="2048"  />

      
      <glyph glyph-name="uni30" unicode="&#x30;" d="M850 492L850 950Q850 1087 773 1182Q691 1284 557 1284Q425 1284 342 1181Q264 1085 264 950L264 492Q264 355 341 259Q424 156 557 156Q691 156 774 259Q850 354 850 492M74 981Q74 1186 212.50 1321Q351 1456 557 1456Q763 1456 901.50 1321Q1040 1186 1040 981L1040 451Q1040 244 902.50 109.50Q765-25 557-25Q350-25 212 109.50Q74 244 74 451L74 981Z"  horiz-adv-x="1114" vert-adv-y="2048"  />

      
      <glyph glyph-name="uni31" unicode="&#x31;" d="M510 0L510 1251L252 1251L313 1432L705 1432L705 0L510 0Z"  horiz-adv-x="1114" vert-adv-y="2048"  />

      
      <glyph glyph-name="uni32" unicode="&#x32;" d="M322 190L1044 190L1044 0L254 0Q82 0 82 147Q82 229 182 309L694 721Q848 845 848 1008Q848 1125 769.50 1199.50Q691 1274 573 1274Q453 1274 375 1195.50Q297 1117 297 997Q297 873 368 798.50Q439 724 563 711L393 575Q98 693 98 993Q98 1200 238 1329Q374 1456 582 1456Q783 1456 915 1336Q1051 1211 1051 1012Q1051 760 776 545L322 190Z"  horiz-adv-x="1114" vert-adv-y="2048"  />

      
      <glyph glyph-name="uni33" unicode="&#x33;" d="M131 1432L729 1432Q938 1432 938 1282Q938 1201 870 1137L580 864Q791 861 908 757Q1032 646 1032 438Q1032 238 902 118Q776 0 575 0L96 0L96 190L516 190Q831 190 831 449Q831 571 748 638Q672 700 547 700L293 700L293 831L741 1251L131 1251L131 1432Z"  horiz-adv-x="1114" vert-adv-y="2048"  />

      
      <glyph glyph-name="uni34" unicode="&#x34;" d="M678 0L678 336L186 336Q49 336 49 461Q49 520 86 588L545 1432L758 1432L260 522L678 522L678 1128L862 1460L862 522L1081 522L1081 336L862 336L862 0L678 0Z"  horiz-adv-x="1114" vert-adv-y="2048"  />

      
      <glyph glyph-name="uni35" unicode="&#x35;" d="M344 885L547 885Q769 885 897 780Q1036 666 1036 449Q1036 237 897 116Q765 0 551 0L102 0L102 190L543 190Q825 190 825 444Q825 565 750 632Q678 696 555 696L160 696L160 1432L903 1432L903 1247L344 1247L344 885Z"  horiz-adv-x="1114" vert-adv-y="2048"  />

      
      <glyph glyph-name="uni36" unicode="&#x36;" d="M258 494Q258 355 343 260Q432 162 569 162Q705 162 795 266Q881 366 881 504Q881 649 790 735Q699 821 553 821Q539 821 479 817L606 991Q823 984 950 854.50Q1077 725 1077 508Q1077 280 940 133Q799-18 573-18Q363-18 218 120Q70 260 70 467Q70 608 143 757Q189 849 305 1012L604 1432L831 1432L426 870Q258 637 258 494Z"  horiz-adv-x="1114" vert-adv-y="2048"  />

      
      <glyph glyph-name="uni37" unicode="&#x37;" d="M1044 1280Q1044 1225 1001 1126L848 774L976 774L976 655L796 655L512 0L285 0L580 655L220 655L220 774L633 774L848 1251L96 1251L96 1432L844 1432Q1044 1432 1044 1280Z"  horiz-adv-x="1114" vert-adv-y="2048"  />

      
      <glyph glyph-name="uni38" unicode="&#x38;" d="M326 823Q158 935 158 1106Q158 1265 280 1364Q394 1456 557 1456Q721 1456 834 1364Q956 1266 956 1106Q956 936 788 823Q1047 714 1047 434Q1047 224 905 97Q769-25 557-25Q345-25 209 97Q68 224 68 434Q68 715 326 823M264 436Q264 316 351 238Q435 164 557 164Q679 164 763 238Q850 316 850 436Q850 555 763.50 633Q677 711 557 711Q438 711 352 634Q264 554 264 436M365 1087Q365 1005 420.50 950Q476 895 557 895Q638 895 694 950.50Q750 1006 750 1087Q750 1170 695 1225Q640 1280 557 1280Q474 1280 419.50 1225Q365 1170 365 1087Z"  horiz-adv-x="1114" vert-adv-y="2048"  />

      
      <glyph glyph-name="uni39" unicode="&#x39;" d="M868 938Q868 1077 783 1172Q694 1270 557 1270Q421 1270 332 1165Q248 1066 248 928Q248 783 338.50 696.50Q429 610 575 610Q587 610 647 614L522 442Q304 450 177.50 578.50Q51 707 51 924Q51 1151 188 1299Q329 1450 555 1450Q763 1450 911 1311Q1059 1172 1059 965Q1059 823 985 676Q942 591 823 422L524 0L297 0L700 561Q782 675 814 738Q868 843 868 938Z"  horiz-adv-x="1114" vert-adv-y="2048"  />

      
      <glyph glyph-name="uni3a" unicode="&#x3a;" d="M184 102Q184 152 218.50 186.50Q253 221 303 221Q353 221 387.50 186.50Q422 152 422 102Q422 53 387 19.50Q352-14 303-14Q254-14 219 19.50Q184 53 184 102M184 692Q184 742 218.50 776.50Q253 811 303 811Q353 811 387.50 776.50Q422 742 422 692Q422 643 387 608Q352 573 303 573Q254 573 219 608Q184 643 184 692Z"  horiz-adv-x="606" vert-adv-y="2048"  />

      
      <glyph glyph-name="uni3b" unicode="&#x3b;" d="M195 692Q195 742 229 776.50Q263 811 313 811Q363 811 396.50 776.50Q430 742 430 692Q430 643 396 608Q362 573 313 573Q264 573 229.50 608Q195 643 195 692M145-205L231 193L410 193L303-205L145-205Z"  horiz-adv-x="606" vert-adv-y="2048"  />

      
      <glyph glyph-name="uni3c" unicode="&#x3c;" d="M1442 1006L473 610L1442 217L1442 63L264 547L264 676L1442 1159L1442 1006Z"  horiz-adv-x="1706" vert-adv-y="2048"  />

      
      <glyph glyph-name="uni3d" unicode="&#x3d;" d="M1452 481L1452 342L254 342L254 481L1452 481M1452 879L1452 739L254 739L254 879L1452 879Z"  horiz-adv-x="1706" vert-adv-y="2048"  />

      
      <glyph glyph-name="uni3e" unicode="&#x3e;" d="M1442 676L1442 547L264 63L264 217L1235 610L264 1006L264 1159L1442 676Z"  horiz-adv-x="1706" vert-adv-y="2048"  />

      
      <glyph glyph-name="uni3f" unicode="&#x3f;" d="M385 338L385 792Q395 792 415 791Q436 791 446 791Q579 791 659 844Q754 907 754 1034Q754 1142 686 1209Q618 1276 510 1276Q394 1276 330.50 1204.50Q267 1133 264 1016L82 1016Q85 1214 204 1335Q323 1456 520 1456Q709 1456 830.50 1337Q952 1218 952 1030Q952 854 842 752Q739 657 559 645L559 338L385 338M362 102Q362 152 396.50 186.50Q431 221 481 221Q531 221 565.50 186.50Q600 152 600 102Q600 53 565 19.50Q530-14 481-14Q432-14 397 19.50Q362 53 362 102Z"  horiz-adv-x="1024" vert-adv-y="2048"  />

      
      <glyph glyph-name="uni40" unicode="&#x40;" d="M1284 854L1341 969L1473 969L1327 393Q1319 361 1319 334Q1319 240 1419 240Q1466 240 1522 267Q1652 329 1728 475Q1798 609 1798 762Q1798 1041 1586 1200Q1396 1343 1108 1343Q975 1343 862 1315Q588 1247 419 1025.50Q250 804 250 520Q250 343 312 212Q402 20 611-84Q799-178 1028-178Q1374-178 1649 12L1704-70Q1407-293 1040-293Q850-293 692-246Q421-165 265 37Q106 242 106 522Q106 802 255 1030.50Q404 1259 661 1374Q866 1466 1116 1466Q1279 1466 1426 1421Q1653 1351 1794 1186Q1944 1009 1944 780Q1944 605 1881 465Q1811 312 1680 217Q1542 117 1380 117Q1180 117 1180 293Q1073 119 879 119Q565 119 565 451Q565 672 691 831Q827 1004 1042 1004Q1212 1004 1284 854M1249 711Q1214 895 1051 895Q895 895 803 742Q725 612 725 446Q725 227 911 227Q1008 227 1085 295.50Q1162 364 1190 475L1249 711Z"  horiz-adv-x="2048" vert-adv-y="2048"  />

      
      <glyph glyph-name="uni41" unicode="&#x41;" d="M922 0L922 657L365 657L365 838L922 838L922 895Q922 1280 614 1280Q307 1280 307 895L307 0L117 0L117 899Q117 1143 242 1294Q375 1456 614 1456Q853 1456 987 1294Q1112 1143 1112 899L1112 0L922 0Z"  horiz-adv-x="1229" vert-adv-y="2048"  />

      
      <glyph glyph-name="uni42" unicode="&#x42;" d="M117 0L117 909Q117 1149 225 1293Q346 1456 578 1456Q758 1456 887 1350Q1026 1237 1026 1061Q1026 878 864 768Q1094 669 1094 420Q1094 221 949 106Q816 0 612 0L377 0L377 180L614 180Q737 180 811 239Q893 304 893 424Q893 541 810 605Q734 662 614 662L377 662L377 834Q570 834 573 834Q691 843 756 893Q834 952 834 1051Q834 1156 761 1221Q691 1282 584 1282Q445 1282 372 1189Q305 1104 305 961L305 0L117 0Z"  horiz-adv-x="1155" vert-adv-y="2048"  />

      
      <glyph glyph-name="uni43" unicode="&#x43;" d="M958 1262Q932 1264 889 1264Q614 1264 446 1131Q262 985 262 717Q262 452 447 304Q615 169 879 169Q918 169 958 172L958 0L903 0Q743 0 623 25Q375 77 221.50 269.50Q68 462 68 717Q68 971 221.50 1162.50Q375 1354 623 1407Q743 1432 958 1432L958 1262Z"  horiz-adv-x="1020" vert-adv-y="2048"  />

      
      <glyph glyph-name="uni44" unicode="&#x44;" d="M385 174Q393 174 408.50 173Q424 172 432 172Q691 172 853 314Q1022 464 1022 719Q1022 983 844 1130Q679 1266 410 1266Q395 1266 320 1262L319 0L131 0L131 1432L377 1432Q543 1432 661 1407Q909 1354 1063 1163Q1217 972 1217 717Q1217 520 1121.50 358.50Q1026 197 854 96Q691 0 385 0L385 174Z"  horiz-adv-x="1282" vert-adv-y="2048"  />

      
      <glyph glyph-name="uni45" unicode="&#x45;" d="M958 1262Q934 1264 895 1264Q364 1264 274 823L958 823L958 653L264 653Q337 172 887 172Q934 172 958 174L958 0L903 0Q585 0 420 100Q68 314 68 717Q68 971 221.50 1162.50Q375 1354 623 1407Q743 1432 958 1432L958 1262Z"  horiz-adv-x="1040" vert-adv-y="2048"  />

      
      <glyph glyph-name="uni46" unicode="&#x46;" d="M117 0L117 934Q117 1432 623 1432L827 1432L827 1255L590 1255Q305 1255 305 963L305 803L827 803L827 627L305 627L305 0L117 0Z"  horiz-adv-x="920" vert-adv-y="2048"  />

      
      <glyph glyph-name="uni47" unicode="&#x47;" d="M829 817L1516 817L1516 768Q1516 533 1432 367Q1338 182 1169 78.50Q1000-25 793-25Q491-25 277 196Q66 414 66 717Q66 1030 282.50 1243Q499 1456 813 1456Q1128 1456 1382 1198L1255 1069Q1046 1282 807 1282Q573 1282 416.50 1118Q260 954 260 719Q260 491 411 326Q567 156 793 156Q1005 156 1148 292Q1285 423 1313 637L829 637L829 817Z"  horiz-adv-x="1583" vert-adv-y="2048"  />

      
      <glyph glyph-name="uni48" unicode="&#x48;" d="M131 0L131 1432L319 1432L319 838L936 838L936 1432L1126 1432L1126 0L936 0L936 657L319 657L319 0L131 0Z"  horiz-adv-x="1255" vert-adv-y="2048"  />

      
      <glyph glyph-name="uni49" unicode="&#x49;" d="M137 0L137 1432L328 1432L328 0L137 0Z"  horiz-adv-x="465" vert-adv-y="2048"  />

      
      <glyph glyph-name="uni4a" unicode="&#x4a;" d="M707 1432L707 500Q707 0 201 0L-4 0L-4 176L233 176Q518 176 518 469L518 1432L707 1432Z"  horiz-adv-x="825" vert-adv-y="2048"  />

      
      <glyph glyph-name="uni4b" unicode="&#x4b;" d="M131 0L131 1432L319 1432L319 838L487 838Q611 838 681 909Q728 957 788 1092L938 1432L1143 1432L961 1016Q883 837 772 793Q1075 743 1075 408L1075 0L885 0L885 334Q885 497 828 571Q763 657 606 657L319 657L319 0L131 0Z"  horiz-adv-x="1165" vert-adv-y="2048"  />

      
      <glyph glyph-name="uni4c" unicode="&#x4c;" d="M117 1432L307 1432L307 469Q307 176 592 176L852 176L852 0L625 0Q117 0 117 500L117 1432Z"  horiz-adv-x="848" vert-adv-y="2048"  />

      
      <glyph glyph-name="uni4d" unicode="&#x4d;" d="M45 0L227 1276Q252 1450 379 1450Q487 1450 532 1307L852 287L1169 1307Q1213 1450 1323 1450Q1450 1450 1475 1276L1657 0L1475 0L1311 1180L983 129Q938-16 852-16Q764-16 719 129L391 1180L229 0L45 0Z"  horiz-adv-x="1702" vert-adv-y="2048"  />

      
      <glyph glyph-name="uni4e" unicode="&#x4e;" d="M311 0L131 0L131 1239Q131 1448 287 1448Q392 1448 461 1305L977 233L977 1432L1159 1432L1159 188Q1159-20 1008-20Q898-20 829 123L311 1202L311 0Z"  horiz-adv-x="1290" vert-adv-y="2048"  />

      
      <glyph glyph-name="uni4f" unicode="&#x4f;" d="M66 717Q66 1021 277.50 1238.50Q489 1456 793 1456Q1095 1456 1306.50 1238Q1518 1020 1518 717Q1518 413 1308 195Q1095-25 793-25Q488-25 277 193Q66 411 66 717M260 719Q260 491 411 326Q567 156 793 156Q1017 156 1173 327Q1323 492 1323 719Q1323 944 1172 1110Q1016 1280 793 1280Q567 1280 411 1111Q260 947 260 719Z"  horiz-adv-x="1583" vert-adv-y="2048"  />

      
      <glyph glyph-name="uni50" unicode="&#x50;" d="M117 0L117 866Q117 1008 133 1087Q167 1254 294 1356Q421 1458 592 1458Q787 1458 925 1323Q1063 1188 1063 993Q1063 790 923 659Q787 532 582 532L379 532L379 713L557 713Q693 713 778 786Q868 863 868 997Q868 1116 787.50 1197Q707 1278 588 1278Q450 1278 375 1182Q307 1096 307 954L307 0L117 0Z"  horiz-adv-x="1110" vert-adv-y="2048"  />

      
      <glyph glyph-name="uni51" unicode="&#x51;" d="M735-276L735 471L920 471L920 174Q1107 225 1216 376Q1323 523 1323 719Q1323 946 1173 1110Q1018 1280 793 1280Q568 1280 412 1111Q260 945 260 719Q260 527 365 378Q473 225 655 174L655-10Q388 52 227 248Q66 444 66 717Q66 1021 278 1238.50Q490 1456 793 1456Q1094 1456 1306 1237.50Q1518 1019 1518 717Q1518 443 1352 244Q1190 48 920-12L920-276L735-276Z"  horiz-adv-x="1583" vert-adv-y="2048"  />

      
      <glyph glyph-name="uni52" unicode="&#x52;" d="M117 0L117 918Q117 1155 229 1299Q353 1456 584 1456Q768 1456 898 1348Q1036 1233 1036 1053Q1036 845 844 739Q1057 682 1057 389L1057 0L868 0L868 317Q868 485 818 551Q759 627 598 627L381 627L381 801Q574 801 580 801Q701 811 765 864Q842 928 842 1040Q842 1150 766 1217Q694 1280 582 1280Q447 1280 373 1186Q305 1100 305 961L305 0L117 0Z"  horiz-adv-x="1143" vert-adv-y="2048"  />

      
      <glyph glyph-name="uni53" unicode="&#x53;" d="M72 0L72 190L561 190Q799 190 799 371Q799 454 725 518Q683 554 578 608L338 731Q78 864 78 1085Q78 1262 214 1353Q331 1432 516 1432L930 1432L930 1243L453 1243Q377 1243 328 1206Q274 1166 274 1092Q274 1032 316 985Q358 938 520 856L729 750Q997 614 997 381Q997 184 854 85Q730 0 524 0L72 0Z"  horiz-adv-x="1075" vert-adv-y="2048"  />

      
      <glyph glyph-name="uni54" unicode="&#x54;" d="M399 0L399 1255L33 1255L33 1432L956 1432L956 1255L590 1255L590 0L399 0Z"  horiz-adv-x="991" vert-adv-y="2048"  />

      
      <glyph glyph-name="uni55" unicode="&#x55;" d="M307 1432L307 541Q307 156 614 156Q922 156 922 541L922 1432L1112 1432L1112 532Q1112 289 987 138Q852-25 614-25Q376-25 242 138Q117 289 117 532L117 1432L307 1432Z"  horiz-adv-x="1229" vert-adv-y="2048"  />

      
      <glyph glyph-name="uni56" unicode="&#x56;" d="M-39 1432L152 1432L524 221L897 1432L1087 1432L694 160Q637-25 524-25Q411-25 354 160L-39 1432Z"  horiz-adv-x="1049" vert-adv-y="2048"  />

      
      <glyph glyph-name="uni57" unicode="&#x57;" d="M121 1432L309 1432L309 475Q309 154 567 154Q823 154 823 475L823 1432L1012 1432L1012 475Q1012 154 1268 154Q1524 154 1524 475L1524 1432L1714 1432L1714 475Q1714 258 1601 122Q1480-25 1268-25Q1053-25 918 150Q784-25 567-25Q354-25 233 121Q121 257 121 475L121 1432Z"  horiz-adv-x="1835" vert-adv-y="2048"  />

      
      <glyph glyph-name="uni58" unicode="&#x58;" d="M1232 0Q809 10 625 365Q444 10 19 0L18 172Q256 180 394 329Q532 478 532 717Q532 956 394 1105Q256 1254 18 1262L18 1431Q442 1423 625 1067Q811 1423 1233 1431L1233 1262Q995 1254 857 1105Q719 956 719 717Q719 478 857 329Q995 180 1233 172L1232 0Z"  horiz-adv-x="1251" vert-adv-y="2048"  />

      
      <glyph glyph-name="uni59" unicode="&#x59;" d="M461 0L461 549Q104 640 104 1042L104 1432L295 1432L295 1040Q295 715 555 715Q815 715 815 1040L815 1432L1006 1432L1006 1042Q1006 640 649 549L649 0L461 0Z"  horiz-adv-x="1110" vert-adv-y="2048"  />

      
      <glyph glyph-name="uni5a" unicode="&#x5a;" d="M985 180L985 0L242 0Q33 0 33 160Q33 226 143 379L774 1255L113 1255L113 1432L758 1432Q967 1432 967 1272Q967 1204 858 1053L229 180L985 180Z"  horiz-adv-x="1020" vert-adv-y="2048"  />

      
      <glyph glyph-name="uni5b" unicode="&#x5b;" d="M559-250L559-354L203-354L203 1432L559 1432L559 1327L377 1327L377-250L559-250Z"  horiz-adv-x="668" vert-adv-y="2048"  />

      
      <glyph glyph-name="uni5c" unicode="&#x5c;" d="M573-190L446-190L-37 1456L84 1456L573-190Z"  horiz-adv-x="555" vert-adv-y="2048"  />

      
      <glyph glyph-name="uni5d" unicode="&#x5d;" d="M109 1327L109 1432L467 1432L467-354L109-354L109-250L293-250L293 1327L109 1327Z"  horiz-adv-x="668" vert-adv-y="2048"  />

      
      <glyph glyph-name="uni5e" unicode="&#x5e;" d="M1116 1458L1626 901L1446 901L1024 1321L600 901L420 901L930 1458L1116 1458Z"  horiz-adv-x="2048" vert-adv-y="2048"  />

      
      <glyph glyph-name="uni5f" unicode="&#x5f;" d="M1024-340L1024-483L0-483L0-340L1024-340Z"  horiz-adv-x="1024" vert-adv-y="2048"  />

      
      <glyph glyph-name="uni60" unicode="&#x60;" d="M649 1096L543 1096L262 1444L440 1444L649 1096Z"  horiz-adv-x="1024" vert-adv-y="2048"  />

      
      <glyph glyph-name="uni61" unicode="&#x61;" d="M870 0L870 489Q870 637 789 733Q703 834 557 834Q414 834 326 735Q242 641 242 496Q242 348 329 251Q419 150 565 150Q692 150 811 240L811 51Q693-16 545-16Q338-16 199 136Q63 284 63 492Q63 711 200 855Q337 999 555 999Q731 999 866.50 890.50Q1002 782 1035 611Q1047 545 1047 412L1047 0L870 0Z"  horiz-adv-x="1151" vert-adv-y="2048"  />

      
      <glyph glyph-name="uni62" unicode="&#x62;" d="M104 1432L281 1432L281 492Q281 344 362 248Q448 147 594 147Q742 147 829 248Q911 344 911 494Q911 641 822 736Q733 831 588 831Q457 831 340 741L340 930Q458 997 606 997Q811 997 952 846Q1090 698 1090 492Q1090 273 954 129Q816-18 598-18Q422-18 286 90.50Q150 199 117 371Q104 436 104 569L104 1432Z"  horiz-adv-x="1151" vert-adv-y="2048"  />

      
      <glyph glyph-name="uni63" unicode="&#x63;" d="M725 813L649 813Q481 813 371 737Q244 650 244 489Q244 329 371 242Q482 166 649 166L725 166L725 0L637 0Q391 0 234 120Q61 253 61 492Q61 658 164 788Q267 918 429 960Q509 981 637 981L725 981L725 813Z"  horiz-adv-x="786" vert-adv-y="2048"  />

      
      <glyph glyph-name="uni64" unicode="&#x64;" d="M1051 1432L1051 569Q1051 436 1039 371Q1005 199 870 90.50Q735-18 559-18Q341-18 202 129Q66 273 66 492Q66 699 204.50 848Q343 997 549 997Q697 997 815 930L815 741Q696 831 569 831Q423 831 333 730Q246 633 246 485Q246 340 330 246Q418 147 561 147Q707 147 793 248Q874 344 874 492L874 1432L1051 1432Z"  horiz-adv-x="1151" vert-adv-y="2048"  />

      
      <glyph glyph-name="uni65" unicode="&#x65;" d="M1051 434Q1015 232 890 110Q756-20 557-20Q349-20 204 133Q61 283 61 492Q61 701 206 851Q351 1001 559 1001Q867 1001 1016 694L373 338L299 471L776 737Q687 836 557 836Q419 836 329 733Q244 634 244 494Q244 355 330 256Q420 152 557 152Q690 152 774 242Q852 325 872 461L1051 434Z"  horiz-adv-x="1110" vert-adv-y="2048"  />

      
      <glyph glyph-name="uni66" unicode="&#x66;" d="M121 0L121 1067Q121 1432 535 1432L641 1432L641 1264Q457 1264 399 1239Q295 1194 295 1036L295 981L641 981L641 815L295 815L295 0L121 0Z"  horiz-adv-x="639" vert-adv-y="2048"  />

      
      <glyph glyph-name="uni67" unicode="&#x67;" d="M1047 57Q1047-180 915-317Q781-457 545-457Q406-457 236-401L274-233Q444-289 549-289Q701-289 786-199Q870-112 870 41L870 489Q870 637 789 733Q703 834 557 834Q414 834 326 735Q242 641 242 496Q242 348 329 251Q419 150 565 150Q692 150 811 240L811 51Q693-16 545-16Q338-16 199 136Q63 284 63 492Q63 711 200.50 855Q338 999 555 999Q731 999 866.50 890.50Q1002 782 1035 611Q1047 545 1047 412L1047 57Z"  horiz-adv-x="1151" vert-adv-y="2048"  />

      
      <glyph glyph-name="uni68" unicode="&#x68;" d="M121 0L121 1432L297 1432L297 887Q417 1001 569 1001Q766 1001 866 864Q954 743 954 539L954 0L778 0L778 567Q778 829 545 829Q425 829 357 737Q297 654 297 530L297 0L121 0Z"  horiz-adv-x="1063" vert-adv-y="2048"  />

      
      <glyph glyph-name="uni69" unicode="&#x69;" d="M121 0L121 981L297 981L297 0L121 0M102 1260Q102 1305 133 1335.50Q164 1366 209 1366Q254 1366 284.50 1335.50Q315 1305 315 1260Q315 1214 285 1182.50Q255 1151 209 1151Q164 1151 133 1183Q102 1215 102 1260Z"  horiz-adv-x="418" vert-adv-y="2048"  />

      
      <glyph glyph-name="uni6a" unicode="&#x6a;" d="M102 1260Q102 1305 133 1335.50Q164 1366 209 1366Q254 1366 284.50 1335.50Q315 1305 315 1260Q315 1214 285 1182.50Q255 1151 209 1151Q164 1151 133 1183Q102 1215 102 1260M297-70Q297-436-117-436L-223-436L-223-268Q-40-268 18-243Q121-198 121-41L121 981L297 981L297-70Z"  horiz-adv-x="418" vert-adv-y="2048"  />

      
      <glyph glyph-name="uni6b" unicode="&#x6b;" d="M121 0L121 1432L297 1432L297 625L375 625Q458 625 510 666Q550 696 600 778L725 981L930 981L786 748Q707 620 641 586Q877 541 877 270L877 0L700 0L700 248Q700 453 506 453L297 453L297 0L121 0Z"  horiz-adv-x="967" vert-adv-y="2048"  />

      
      <glyph glyph-name="uni6c" unicode="&#x6c;" d="M121 0L121 1432L297 1432L297 0L121 0Z"  horiz-adv-x="418" vert-adv-y="2048"  />

      
      <glyph glyph-name="uni6d" unicode="&#x6d;" d="M106 0L106 567Q106 758 203 874Q307 999 494 999Q681 999 795 848Q912 999 1096 999Q1282 999 1386 873Q1483 756 1483 567L1483 0L1309 0L1309 600Q1309 700 1252 764.50Q1195 829 1096 829Q997 829 940 764.50Q883 700 883 600L883 0L709 0L709 600Q709 700 651 764.50Q593 829 494 829Q395 829 338 764.50Q281 700 281 600L281 0L106 0Z"  horiz-adv-x="1591" vert-adv-y="2048"  />

      
      <glyph glyph-name="uni6e" unicode="&#x6e;" d="M106 0L106 535Q106 739 211 865Q324 999 524 999Q724 999 836 864Q940 739 940 535L940 0L766 0L766 567Q766 680 702 753Q635 829 524 829Q413 829 346 752Q281 679 281 567L281 0L106 0Z"  horiz-adv-x="1049" vert-adv-y="2048"  />

      
      <glyph glyph-name="uni6f" unicode="&#x6f;" d="M244 494Q244 356 330 256Q421 152 557 152Q693 152 784 256Q870 356 870 494Q870 632 784 731Q693 834 557 834Q421 834 331 731Q244 632 244 494M61 492Q61 699 205.50 849Q350 999 557 999Q766 999 909.50 850Q1053 701 1053 492Q1053 281 911 133Q767-18 557-18Q349-18 204 134Q61 283 61 492Z"  horiz-adv-x="1114" vert-adv-y="2048"  />

      
      <glyph glyph-name="uni70" unicode="&#x70;" d="M104-436L104 412Q104 538 117 606Q149 783 283 891Q417 999 598 999Q816 999 953 855Q1090 711 1090 492Q1090 284 953 136Q813-16 606-16Q458-16 340 51L340 240Q457 150 588 150Q734 150 824 251Q911 348 911 496Q911 641 826 736Q737 834 594 834Q448 834 362 733Q281 637 281 489L281-436L104-436Z"  horiz-adv-x="1151" vert-adv-y="2048"  />

      
      <glyph glyph-name="uni71" unicode="&#x71;" d="M870-436L870 489Q870 637 789 733Q703 834 557 834Q414 834 326 735Q242 641 242 496Q242 348 329 251Q419 150 565 150Q692 150 811 240L811 51Q693-16 545-16Q338-16 199 136Q63 284 63 492Q63 711 200 855Q337 999 555 999Q733 999 867 892Q1001 785 1035 611Q1047 545 1047 412L1047-436L870-436Z"  horiz-adv-x="1151" vert-adv-y="2048"  />

      
      <glyph glyph-name="uni72" unicode="&#x72;" d="M119 0L119 981L281 981L281 836Q336 941 444 976Q515 999 664 999L664 829Q463 829 379 746.50Q295 664 295 463L295 0L119 0Z"  horiz-adv-x="664" vert-adv-y="2048"  />

      
      <glyph glyph-name="uni73" unicode="&#x73;" d="M72 168L496 168Q633 168 633 262Q633 330 502 383Q405 422 309 461Q178 519 130 574Q74 637 74 733Q74 981 403 981L766 981L766 817L356 817Q250 817 250 733Q250 675 358 631Q461 589 564 548Q707 484 758 428Q815 364 815 268Q815 0 403 0L72 0L72 168Z"  horiz-adv-x="887" vert-adv-y="2048"  />

      
      <glyph glyph-name="uni74" unicode="&#x74;" d="M109 1241L285 1241L285 981L582 981L582 815L285 815L285 395Q285 250 370 202Q430 168 582 168L582 0L524 0Q109 0 109 365L109 1241Z"  horiz-adv-x="645" vert-adv-y="2048"  />

      
      <glyph glyph-name="uni75" unicode="&#x75;" d="M940 981L940 446Q940 242 835 116Q723-18 522-18Q322-18 210 117Q106 242 106 446L106 981L281 981L281 414Q281 302 346 229Q413 152 524 152Q635 152 702 228Q766 301 766 414L766 981L940 981Z"  horiz-adv-x="1049" vert-adv-y="2048"  />

      
      <glyph glyph-name="uni76" unicode="&#x76;" d="M180 981L461 209L741 981L922 981L594 98Q550-20 459-20Q370-20 326 98L0 981L180 981Z"  horiz-adv-x="920" vert-adv-y="2048"  />

      
      <glyph glyph-name="uni77" unicode="&#x77;" d="M1483 981L1483 414Q1483 224 1386 107Q1283-18 1096-18Q907-18 795 133Q676-18 494-18Q308-18 203 107Q106 224 106 414L106 981L281 981L281 383Q281 282 336 219Q394 152 494 152Q593 152 652 219Q709 283 709 383L709 981L883 981L883 383Q883 282 938 219Q996 152 1096 152Q1194 152 1253 219Q1309 284 1309 383L1309 981L1483 981Z"  horiz-adv-x="1591" vert-adv-y="2048"  />

      
      <glyph glyph-name="uni78" unicode="&#x78;" d="M23 981L57 981Q314 981 451 756Q527 880 630 932Q727 981 877 981L876 813Q724 811 630 727Q532 639 532 489Q532 341 631 253Q726 169 876 166L877 0L854 0Q592 0 451 223Q311 0 23 0L23 166Q173 169 269 253Q369 341 369 489Q369 639 270 727Q175 811 23 813L23 981Z"  horiz-adv-x="901" vert-adv-y="2048"  />

      
      <glyph glyph-name="uni79" unicode="&#x79;" d="M940 981L940 446Q940 71 610-10L610-436L434-436L434-10Q106 71 106 446L106 981L281 981L281 414Q281 302 346 229Q413 152 524 152Q635 152 702 228Q766 301 766 414L766 981L940 981Z"  horiz-adv-x="1049" vert-adv-y="2048"  />

      
      <glyph glyph-name="uni7a" unicode="&#x7a;" d="M621 981Q803 981 803 860Q803 799 745 733L250 168L807 168L807 0L219 0Q45 0 45 131Q45 186 117 268L596 815L84 815L84 981L621 981Z"  horiz-adv-x="854" vert-adv-y="2048"  />

      
      <glyph glyph-name="uni7b" unicode="&#x7b;" d="M866 1327Q705 1327 664 1282.50Q623 1238 623 1098L623 856Q623 714 589 648Q546 563 422 530Q548 499 591 410Q623 346 623 205L623-37Q623-178 664.50-222Q706-266 866-266L866-414L823-414Q630-414 551-365Q483-323 462-227Q451-175 451-57L451 188Q451 329 403 390Q348 459 211 459Q204 459 189.50 458Q175 457 168 457L168 606Q175 606 190 605Q205 604 213 604Q349 604 403 672Q451 732 451 872L451 1118Q451 1236 462 1288Q483 1383 551 1425Q634 1477 866 1477L866 1327Z"  horiz-adv-x="1024" vert-adv-y="2048"  />

      
      <glyph glyph-name="uni7c" unicode="&#x7c;" d="M588 1565L588-483L438-483L438 1565L588 1565Z"  horiz-adv-x="1024" vert-adv-y="2048"  />

      
      <glyph glyph-name="uni7d" unicode="&#x7d;" d="M858 606L858 457Q851 457 836.50 458Q822 459 815 459Q677 459 623 391Q575 330 575 188L575-57Q575-175 564-227Q543-323 475-365Q396-414 160-414L160-266Q319-266 361-221Q403-176 403-35L403 205Q403 347 437 413Q480 498 604 530Q480 563 437 648Q403 714 403 856L403 1098Q403 1238 361 1282.50Q319 1327 160 1327L160 1477L197 1477Q392 1477 475 1425Q530 1391 552 1330.50Q574 1270 577 1093Q575 1214 575 872Q575 725 629 665Q667 622 736 611Q767 606 858 606Z"  horiz-adv-x="1024" vert-adv-y="2048"  />

      
      <glyph glyph-name="uni7e" unicode="&#x7e;" d="M1087 520Q979 344 829 344Q778 344 727 362Q696 373 627.50 408.50Q559 444 520 459Q453 483 395 483Q336 483 291 449.50Q246 416 215 336L141 463Q178 539 231 582Q303 639 397 639Q459 639 522 616Q555 606 655 559Q711 535 733 526Q797 500 829 500Q891 500 946 553Q985 590 1014 647L1087 520Z"  horiz-adv-x="1228" vert-adv-y="2048"  />

      
      <glyph glyph-name="unic4" unicode="&#xc4;" d="M922 0L922 657L365 657L365 838L922 838L922 895Q922 1280 614 1280Q307 1280 307 895L307 0L117 0L117 899Q117 1143 242 1294Q375 1456 614 1456Q853 1456 987 1294Q1112 1143 1112 899L1112 0L922 0M884 1750Q933 1750 968 1715Q1003 1680 1003 1632Q1003 1582 967.50 1546.50Q932 1511 884 1511Q835 1511 799 1547Q763 1583 763 1632Q763 1681 798.50 1715.50Q834 1750 884 1750M474 1750Q523 1750 558 1715Q593 1680 593 1632Q593 1582 558 1546.50Q523 1511 474 1511Q425 1511 389 1547Q353 1583 353 1632Q353 1681 389 1715.50Q425 1750 474 1750Z"  horiz-adv-x="1355" vert-adv-y="2048"  />

      
      <glyph glyph-name="unic5" unicode="&#xc5;" d="M922 0L922 657L365 657L365 838L922 838L922 895Q922 1280 614 1280Q307 1280 307 895L307 0L117 0L117 899Q117 1143 242 1294Q375 1456 614 1456Q853 1456 987 1294Q1112 1143 1112 899L1112 0L922 0M679 1912Q768 1912 823 1854.50Q878 1797 878 1713Q878 1626 822 1569.50Q766 1513 679 1513Q596 1513 537 1569.50Q478 1626 478 1713Q478 1797 534.50 1854.50Q591 1912 679 1912M679 1601Q727 1601 756.50 1632Q786 1663 786 1713Q786 1763 757 1793.50Q728 1824 679 1824Q630 1824 600 1793.50Q570 1763 570 1713Q570 1663 600 1632Q630 1601 679 1601Z"  horiz-adv-x="1355" vert-adv-y="2048"  />

      
      <glyph glyph-name="unic7" unicode="&#xc7;" d="M698-24Q619-12 548 14Q411 63 312 157.50Q213 252 156.50 388Q100 524 100 698Q100 872 156.50 1007.50Q213 1143 313 1237Q413 1331 553.50 1380.50Q694 1430 864 1430Q993 1430 1121 1395Q1249 1360 1353 1313Q1321 1251 1309.50 1208Q1298 1165 1292 1137Q1292 1126 1291 1105.50Q1290 1085 1290 1083L1198 1079Q1177 1100 1145.50 1129.50Q1114 1159 1071 1184.50Q1028 1210 975.50 1228.50Q923 1247 864 1247Q766 1247 681 1214.50Q596 1182 533.50 1114.50Q471 1047 435 943.50Q399 840 399 698Q399 557 435 453.50Q471 350 533.50 282.50Q596 215 681 182.50Q766 150 864 150Q923 150 979.50 168Q1036 186 1086 214Q1136 242 1178 271.50Q1220 301 1251 324L1314 260L1290 100Q1267 82 1224 59.50Q1181 37 1122 15.50Q1063-6 992-20.50Q921-35 845-35Q824-35 803-34L803-55Q875-57 914-92.50Q953-128 953-188Q953-364 639-370L639-266Q737-262 776-244.50Q815-227 815-190Q815-147 782-132Q749-117 693-116L698-24Z"  horiz-adv-x="1413" vert-adv-y="2048"  />

      
      <glyph glyph-name="unic9" unicode="&#xc9;" d="M958 1262Q934 1264 895 1264Q364 1264 274 823L958 823L958 653L264 653Q337 172 887 172Q934 172 958 174L958 0L903 0Q585 0 420 100Q68 314 68 717Q68 971 221.50 1162.50Q375 1354 623 1407Q743 1432 958 1432L958 1262M427 1486Q361 1516 361 1524Q361 1532 372 1544L601 1839Q611 1854 624 1845L777 1784Q788 1780 793 1775L814 1766Q847 1754 820 1731L493 1467Q485 1461 470 1465Q444 1477 427 1486Z"  horiz-adv-x="982" vert-adv-y="2048"  />

      
      <glyph glyph-name="unid1" unicode="&#xd1;" d="M311 0L131 0L131 1239Q131 1448 287 1448Q392 1448 461 1305L977 233L977 1432L1159 1432L1159 188Q1159-20 1008-20Q898-20 829 123L311 1202L311 0M1026 1758Q950 1512 831 1512Q775 1512 683 1575Q636 1603 600 1619.50Q564 1636 535 1636Q503 1636 465.50 1611.50Q428 1587 398 1527Q389 1549 379.50 1545.50Q370 1542 359 1558Q429 1815 592 1815Q649 1815 727 1754Q769 1726 799.50 1712Q830 1698 854 1698Q892 1698 930 1729Q968 1760 996 1794L1026 1758Z"  horiz-adv-x="1386" vert-adv-y="2048"  />

      
      <glyph glyph-name="unid6" unicode="&#xd6;" d="M66 717Q66 1021 277.50 1238.50Q489 1456 793 1456Q1095 1456 1306.50 1238Q1518 1020 1518 717Q1518 413 1308 195Q1095-25 793-25Q488-25 277 193Q66 411 66 717M260 719Q260 491 411 326Q567 156 793 156Q1017 156 1173 327Q1323 492 1323 719Q1323 944 1172 1110Q1016 1280 793 1280Q567 1280 411 1111Q260 947 260 719M1065 1784Q1114 1784 1149 1749Q1184 1714 1184 1666Q1184 1616 1148.50 1580.50Q1113 1545 1065 1545Q1016 1545 980 1581Q944 1617 944 1666Q944 1715 979.50 1749.50Q1015 1784 1065 1784M655 1784Q704 1784 739 1749Q774 1714 774 1666Q774 1616 739 1580.50Q704 1545 655 1545Q606 1545 570 1581Q534 1617 534 1666Q534 1715 570 1749.50Q606 1784 655 1784Z"  horiz-adv-x="1703" vert-adv-y="2048"  />

      
      <glyph glyph-name="unidc" unicode="&#xdc;" d="M307 1432L307 541Q307 156 614 156Q922 156 922 541L922 1432L1112 1432L1112 532Q1112 289 987 138Q852-25 614-25Q376-25 242 138Q117 289 117 532L117 1432L307 1432M915 1767Q964 1767 999 1732Q1034 1697 1034 1649Q1034 1599 998.50 1563.50Q963 1528 915 1528Q866 1528 830 1564Q794 1600 794 1649Q794 1698 829.50 1732.50Q865 1767 915 1767M505 1767Q554 1767 589 1732Q624 1697 624 1649Q624 1599 589 1563.50Q554 1528 505 1528Q456 1528 420 1564Q384 1600 384 1649Q384 1698 420 1732.50Q456 1767 505 1767Z"  horiz-adv-x="1408" vert-adv-y="2048"  />

      
      <glyph glyph-name="unie1" unicode="&#xe1;" d="M870 0L870 489Q870 637 789 733Q703 834 557 834Q414 834 326 735Q242 641 242 496Q242 348 329 251Q419 150 565 150Q692 150 811 240L811 51Q693-16 545-16Q338-16 199 136Q63 284 63 492Q63 711 200 855Q337 999 555 999Q731 999 866.50 890.50Q1002 782 1035 611Q1047 545 1047 412L1047 0L870 0M394 1116Q328 1146 328 1154Q328 1162 339 1174L568 1469Q578 1484 591 1475L744 1414Q755 1410 760 1405L781 1396Q814 1384 787 1361L460 1097Q452 1091 437 1095Q411 1107 394 1116Z"  horiz-adv-x="974" vert-adv-y="2048"  />

      
      <glyph glyph-name="unie0" unicode="&#xe0;" d="M870 0L870 489Q870 637 789 733Q703 834 557 834Q414 834 326 735Q242 641 242 496Q242 348 329 251Q419 150 565 150Q692 150 811 240L811 51Q693-16 545-16Q338-16 199 136Q63 284 63 492Q63 711 200 855Q337 999 555 999Q731 999 866.50 890.50Q1002 782 1035 611Q1047 545 1047 412L1047 0L870 0M587 1049L481 1049L200 1397L378 1397L587 1049Z"  horiz-adv-x="974" vert-adv-y="2048"  />

      
      <glyph glyph-name="unie2" unicode="&#xe2;" d="M870 0L870 489Q870 637 789 733Q703 834 557 834Q414 834 326 735Q242 641 242 496Q242 348 329 251Q419 150 565 150Q692 150 811 240L811 51Q693-16 545-16Q338-16 199 136Q63 284 63 492Q63 711 200 855Q337 999 555 999Q731 999 866.50 890.50Q1002 782 1035 611Q1047 545 1047 412L1047 0L870 0M840 1108L841 1108L841 1057L840 1057Q838 1043 822 1043Q815 1043 808 1047L498 1222L197 1053Q190 1049 183 1049Q164 1049 164 1067Q164 1075 168 1081L168 1105Q164 1110 164 1118Q164 1129 172 1137L487 1446Q505 1463 518 1446L833 1131Q841 1123 841 1114Q841 1111 840 1108Z"  horiz-adv-x="974" vert-adv-y="2048"  />

      
      <glyph glyph-name="unie4" unicode="&#xe4;" d="M870 0L870 489Q870 637 789 733Q703 834 557 834Q414 834 326 735Q242 641 242 496Q242 348 329 251Q419 150 565 150Q692 150 811 240L811 51Q693-16 545-16Q338-16 199 136Q63 284 63 492Q63 711 200 855Q337 999 555 999Q731 999 866.50 890.50Q1002 782 1035 611Q1047 545 1047 412L1047 0L870 0M698 1405Q747 1405 782 1370Q817 1335 817 1287Q817 1237 781.50 1201.50Q746 1166 698 1166Q649 1166 613 1202Q577 1238 577 1287Q577 1336 612.50 1370.50Q648 1405 698 1405M288 1405Q337 1405 372 1370Q407 1335 407 1287Q407 1237 372 1201.50Q337 1166 288 1166Q239 1166 203 1202Q167 1238 167 1287Q167 1336 203 1370.50Q239 1405 288 1405Z"  horiz-adv-x="974" vert-adv-y="2048"  />

      
      <glyph glyph-name="unie3" unicode="&#xe3;" d="M870 0L870 489Q870 637 789 733Q703 834 557 834Q414 834 326 735Q242 641 242 496Q242 348 329 251Q419 150 565 150Q692 150 811 240L811 51Q693-16 545-16Q338-16 199 136Q63 284 63 492Q63 711 200 855Q337 999 555 999Q731 999 866.50 890.50Q1002 782 1035 611Q1047 545 1047 412L1047 0L870 0M830 1341Q754 1095 635 1095Q579 1095 487 1158Q440 1186 404 1202.50Q368 1219 339 1219Q307 1219 269.50 1194.50Q232 1170 202 1110Q193 1132 183.50 1128.50Q174 1125 163 1141Q233 1398 396 1398Q453 1398 531 1337Q573 1309 603.50 1295Q634 1281 658 1281Q696 1281 734 1312Q772 1343 800 1377L830 1341Z"  horiz-adv-x="974" vert-adv-y="2048"  />

      
      <glyph glyph-name="unie5" unicode="&#xe5;" d="M870 0L870 489Q870 637 789 733Q703 834 557 834Q414 834 326 735Q242 641 242 496Q242 348 329 251Q419 150 565 150Q692 150 811 240L811 51Q693-16 545-16Q338-16 199 136Q63 284 63 492Q63 711 200 855Q337 999 555 999Q731 999 866.50 890.50Q1002 782 1035 611Q1047 545 1047 412L1047 0L870 0M493 1520Q582 1520 637 1462.50Q692 1405 692 1321Q692 1234 636 1177.50Q580 1121 493 1121Q410 1121 351 1177.50Q292 1234 292 1321Q292 1405 348.50 1462.50Q405 1520 493 1520M493 1209Q541 1209 570.50 1240Q600 1271 600 1321Q600 1371 571 1401.50Q542 1432 493 1432Q444 1432 414 1401.50Q384 1371 384 1321Q384 1271 414 1240Q444 1209 493 1209Z"  horiz-adv-x="974" vert-adv-y="2048"  />

      
      <glyph glyph-name="unie7" unicode="&#xe7;" d="M507-21Q464-14 421 0Q330 29 256 92.50Q182 156 136 256Q90 356 90 498Q90 635 136 734.50Q182 834 258 898.50Q334 963 430 993.50Q526 1024 629 1024Q684 1024 739.50 1014Q795 1004 844 986.50Q893 969 933 945.50Q973 922 999 897Q979 854 962.50 806Q946 758 936 705L842 705Q827 729 805.50 754.50Q784 780 757.50 801.50Q731 823 699.50 836.50Q668 850 633 850Q561 850 512 823.50Q463 797 430 749.50Q397 702 383 638.50Q369 575 369 500Q369 334 438.50 249Q508 164 639 164Q702 164 780 210Q858 256 917 324L991 254Q985 219 981 184.50Q977 150 975 115Q940 86 896 60.50Q852 35 804 14.50Q756-6 705-17Q657-28 612-29L612-55Q684-57 723-92.50Q762-128 762-188Q762-364 448-370L448-266Q546-262 585-244.50Q624-227 624-190Q624-147 591-132Q558-117 502-116L507-21Z"  horiz-adv-x="1080" vert-adv-y="2048"  />

      
      <glyph glyph-name="unie9" unicode="&#xe9;" d="M1051 434Q1015 232 890 110Q756-20 557-20Q349-20 204 133Q61 283 61 492Q61 701 206 851Q351 1001 559 1001Q867 1001 1016 694L373 338L299 471L776 737Q687 836 557 836Q419 836 329 733Q244 634 244 494Q244 355 330 256Q420 152 557 152Q690 152 774 242Q852 325 872 461L1051 434M546 1124Q480 1154 480 1162Q480 1170 491 1182L720 1477Q730 1492 743 1483L896 1422Q907 1418 912 1413L933 1404Q966 1392 939 1369L612 1105Q604 1099 589 1103Q563 1115 546 1124Z"  horiz-adv-x="1105" vert-adv-y="2048"  />

      
      <glyph glyph-name="unie8" unicode="&#xe8;" d="M1051 434Q1015 232 890 110Q756-20 557-20Q349-20 204 133Q61 283 61 492Q61 701 206 851Q351 1001 559 1001Q867 1001 1016 694L373 338L299 471L776 737Q687 836 557 836Q419 836 329 733Q244 634 244 494Q244 355 330 256Q420 152 557 152Q690 152 774 242Q852 325 872 461L1051 434M701 1049L595 1049L314 1397L492 1397L701 1049Z"  horiz-adv-x="1105" vert-adv-y="2048"  />

      
      <glyph glyph-name="uniea" unicode="&#xea;" d="M1051 434Q1015 232 890 110Q756-20 557-20Q349-20 204 133Q61 283 61 492Q61 701 206 851Q351 1001 559 1001Q867 1001 1016 694L373 338L299 471L776 737Q687 836 557 836Q419 836 329 733Q244 634 244 494Q244 355 330 256Q420 152 557 152Q690 152 774 242Q852 325 872 461L1051 434M911 1112L912 1112L912 1061L911 1061Q909 1047 893 1047Q886 1047 879 1051L569 1226L268 1057Q261 1053 254 1053Q235 1053 235 1071Q235 1079 239 1085L239 1109Q235 1114 235 1122Q235 1133 243 1141L558 1450Q576 1467 589 1450L904 1135Q912 1127 912 1118Q912 1115 911 1112Z"  horiz-adv-x="1105" vert-adv-y="2048"  />

      
      <glyph glyph-name="unieb" unicode="&#xeb;" d="M1051 434Q1015 232 890 110Q756-20 557-20Q349-20 204 133Q61 283 61 492Q61 701 206 851Q351 1001 559 1001Q867 1001 1016 694L373 338L299 471L776 737Q687 836 557 836Q419 836 329 733Q244 634 244 494Q244 355 330 256Q420 152 557 152Q690 152 774 242Q852 325 872 461L1051 434M769 1371Q818 1371 853 1336Q888 1301 888 1253Q888 1203 852.50 1167.50Q817 1132 769 1132Q720 1132 684 1168Q648 1204 648 1253Q648 1302 683.50 1336.50Q719 1371 769 1371M359 1371Q408 1371 443 1336Q478 1301 478 1253Q478 1203 443 1167.50Q408 1132 359 1132Q310 1132 274 1168Q238 1204 238 1253Q238 1302 274 1336.50Q310 1371 359 1371Z"  horiz-adv-x="1105" vert-adv-y="2048"  />

      
      <glyph glyph-name="unied" unicode="&#xed;" d="M190 1124Q124 1154 124 1162Q124 1170 135 1182L364 1477Q374 1492 387 1483L540 1422Q551 1418 556 1413L577 1404Q610 1392 583 1369L256 1105Q248 1099 233 1103Q207 1115 190 1124M121 0L121 981L297 981L297 0L121 0Z"  horiz-adv-x="521" vert-adv-y="2048"  />

      
      <glyph glyph-name="uniec" unicode="&#xec;" d="M350 1128Q333 1119 307 1107Q292 1103 284 1109L-43 1373Q-70 1396-37 1408L-16 1417Q-11 1422 0 1426L153 1487Q166 1496 176 1481L405 1186Q416 1174 416 1166Q416 1158 350 1128M195 0L195 981L371 981L371 0L195 0Z"  horiz-adv-x="521" vert-adv-y="2048"  />

      
      <glyph glyph-name="uniee" unicode="&#xee;" d="M600 1172L601 1172L601 1121L600 1121Q598 1107 582 1107Q575 1107 568 1111L258 1286L-43 1117Q-50 1113-57 1113Q-76 1113-76 1131Q-76 1139-72 1145L-72 1169Q-76 1174-76 1182Q-76 1193-68 1201L247 1510Q265 1527 278 1510L593 1195Q601 1187 601 1178Q601 1175 600 1172M172 0L172 981L348 981L348 0L172 0Z"  horiz-adv-x="521" vert-adv-y="2048"  />

      
      <glyph glyph-name="unief" unicode="&#xef;" d="M-2 1286Q-2 1336 34.50 1372.50Q71 1409 122 1409Q174 1409 210.50 1372.50Q247 1336 247 1286Q247 1234 210.50 1197.50Q174 1161 122 1161Q71 1161 34.50 1197.50Q-2 1234-2 1286M319 1286Q319 1336 355.50 1372.50Q392 1409 444 1409Q495 1409 531.50 1372.50Q568 1336 568 1286Q568 1234 531.50 1197.50Q495 1161 444 1161Q392 1161 355.50 1197.50Q319 1234 319 1286M194 0L194 981L370 981L370 0L194 0Z"  horiz-adv-x="521" vert-adv-y="2048"  />

      
      <glyph glyph-name="unif1" unicode="&#xf1;" d="M106 0L106 535Q106 739 211 865Q324 999 524 999Q724 999 836 864Q940 739 940 535L940 0L766 0L766 567Q766 680 702 753Q635 829 524 829Q413 829 346 752Q281 679 281 567L281 0L106 0M839 1361Q763 1115 644 1115Q588 1115 496 1178Q449 1206 413 1222.50Q377 1239 348 1239Q316 1239 278.50 1214.50Q241 1190 211 1130Q202 1152 192.50 1148.50Q183 1145 172 1161Q242 1418 405 1418Q462 1418 540 1357Q582 1329 612.50 1315Q643 1301 667 1301Q705 1301 743 1332Q781 1363 809 1397L839 1361Z"  horiz-adv-x="1067" vert-adv-y="2048"  />

      
      <glyph glyph-name="unif3" unicode="&#xf3;" d="M244 494Q244 356 330 256Q421 152 557 152Q693 152 784 256Q870 356 870 494Q870 632 784 731Q693 834 557 834Q421 834 331 731Q244 632 244 494M61 492Q61 699 205.50 849Q350 999 557 999Q766 999 909.50 850Q1053 701 1053 492Q1053 281 911 133Q767-18 557-18Q349-18 204 134Q61 283 61 492M556 1124Q490 1154 490 1162Q490 1170 501 1182L730 1477Q740 1492 753 1483L906 1422Q917 1418 922 1413L943 1404Q976 1392 949 1369L622 1105Q614 1099 599 1103Q573 1115 556 1124Z"  horiz-adv-x="1199" vert-adv-y="2048"  />

      
      <glyph glyph-name="unif2" unicode="&#xf2;" d="M244 494Q244 356 330 256Q421 152 557 152Q693 152 784 256Q870 356 870 494Q870 632 784 731Q693 834 557 834Q421 834 331 731Q244 632 244 494M61 492Q61 699 205.50 849Q350 999 557 999Q766 999 909.50 850Q1053 701 1053 492Q1053 281 911 133Q767-18 557-18Q349-18 204 134Q61 283 61 492M709 1049L603 1049L322 1397L500 1397L709 1049Z"  horiz-adv-x="1199" vert-adv-y="2048"  />

      
      <glyph glyph-name="unif4" unicode="&#xf4;" d="M244 494Q244 356 330 256Q421 152 557 152Q693 152 784 256Q870 356 870 494Q870 632 784 731Q693 834 557 834Q421 834 331 731Q244 632 244 494M61 492Q61 699 205.50 849Q350 999 557 999Q766 999 909.50 850Q1053 701 1053 492Q1053 281 911 133Q767-18 557-18Q349-18 204 134Q61 283 61 492M953 1108L954 1108L954 1057L953 1057Q951 1043 935 1043Q928 1043 921 1047L611 1222L310 1053Q303 1049 296 1049Q277 1049 277 1067Q277 1075 281 1081L281 1105Q277 1110 277 1118Q277 1129 285 1137L600 1446Q618 1463 631 1446L946 1131Q954 1123 954 1114Q954 1111 953 1108Z"  horiz-adv-x="1199" vert-adv-y="2048"  />

      
      <glyph glyph-name="unif6" unicode="&#xf6;" d="M244 494Q244 356 330 256Q421 152 557 152Q693 152 784 256Q870 356 870 494Q870 632 784 731Q693 834 557 834Q421 834 331 731Q244 632 244 494M61 492Q61 699 205.50 849Q350 999 557 999Q766 999 909.50 850Q1053 701 1053 492Q1053 281 911 133Q767-18 557-18Q349-18 204 134Q61 283 61 492M810 1375Q859 1375 894 1340Q929 1305 929 1257Q929 1207 893.50 1171.50Q858 1136 810 1136Q761 1136 725 1172Q689 1208 689 1257Q689 1306 724.50 1340.50Q760 1375 810 1375M400 1375Q449 1375 484 1340Q519 1305 519 1257Q519 1207 484 1171.50Q449 1136 400 1136Q351 1136 315 1172Q279 1208 279 1257Q279 1306 315 1340.50Q351 1375 400 1375Z"  horiz-adv-x="1199" vert-adv-y="2048"  />

      
      <glyph glyph-name="unif5" unicode="&#xf5;" d="M244 494Q244 356 330 256Q421 152 557 152Q693 152 784 256Q870 356 870 494Q870 632 784 731Q693 834 557 834Q421 834 331 731Q244 632 244 494M61 492Q61 699 205.50 849Q350 999 557 999Q766 999 909.50 850Q1053 701 1053 492Q1053 281 911 133Q767-18 557-18Q349-18 204 134Q61 283 61 492M943 1336Q867 1090 748 1090Q692 1090 600 1153Q553 1181 517 1197.50Q481 1214 452 1214Q420 1214 382.50 1189.50Q345 1165 315 1105Q306 1127 296.50 1123.50Q287 1120 276 1136Q346 1393 509 1393Q566 1393 644 1332Q686 1304 716.50 1290Q747 1276 771 1276Q809 1276 847 1307Q885 1338 913 1372L943 1336Z"  horiz-adv-x="1199" vert-adv-y="2048"  />

      
      <glyph glyph-name="unifa" unicode="&#xfa;" d="M940 981L940 446Q940 242 835 116Q723-18 522-18Q322-18 210 117Q106 242 106 446L106 981L281 981L281 414Q281 302 346 229Q413 152 524 152Q635 152 702 228Q766 301 766 414L766 981L940 981M496 1124Q430 1154 430 1162Q430 1170 441 1182L670 1477Q680 1492 693 1483L846 1422Q857 1418 862 1413L883 1404Q916 1392 889 1369L562 1105Q554 1099 539 1103Q513 1115 496 1124Z"  horiz-adv-x="1050" vert-adv-y="2048"  />

      
      <glyph glyph-name="unif9" unicode="&#xf9;" d="M940 981L940 446Q940 242 835 116Q723-18 522-18Q322-18 210 117Q106 242 106 446L106 981L281 981L281 414Q281 302 346 229Q413 152 524 152Q635 152 702 228Q766 301 766 414L766 981L940 981M644 1036L538 1036L257 1384L435 1384L644 1036Z"  horiz-adv-x="1050" vert-adv-y="2048"  />

      
      <glyph glyph-name="unifb" unicode="&#xfb;" d="M940 981L940 446Q940 242 835 116Q723-18 522-18Q322-18 210 117Q106 242 106 446L106 981L281 981L281 414Q281 302 346 229Q413 152 524 152Q635 152 702 228Q766 301 766 414L766 981L940 981M875 1163L876 1163L876 1112L875 1112Q873 1098 857 1098Q850 1098 843 1102L533 1277L232 1108Q225 1104 218 1104Q199 1104 199 1122Q199 1130 203 1136L203 1160Q199 1165 199 1173Q199 1184 207 1192L522 1501Q540 1518 553 1501L868 1186Q876 1178 876 1169Q876 1166 875 1163Z"  horiz-adv-x="1050" vert-adv-y="2048"  />

      
      <glyph glyph-name="unifc" unicode="&#xfc;" d="M940 981L940 446Q940 242 835 116Q723-18 522-18Q322-18 210 117Q106 242 106 446L106 981L281 981L281 414Q281 302 346 229Q413 152 524 152Q635 152 702 228Q766 301 766 414L766 981L940 981M733 1401Q782 1401 817 1366Q852 1331 852 1283Q852 1233 816.50 1197.50Q781 1162 733 1162Q684 1162 648 1198Q612 1234 612 1283Q612 1332 647.50 1366.50Q683 1401 733 1401M323 1401Q372 1401 407 1366Q442 1331 442 1283Q442 1233 407 1197.50Q372 1162 323 1162Q274 1162 238 1198Q202 1234 202 1283Q202 1332 238 1366.50Q274 1401 323 1401Z"  horiz-adv-x="1050" vert-adv-y="2048"  />

      
      <glyph glyph-name="uni2020" unicode="&#x2020;" d="M430 930L90 913L90 1098L430 1081L408 1548L612 1548L590 1081L930 1098L930 913L590 930L590-139L430-139L430 930Z"  horiz-adv-x="1020" vert-adv-y="2048"  />

      
      <glyph glyph-name="unib0" unicode="&#xb0;" d="M410 1507Q554 1507 647.50 1415.50Q741 1324 741 1180Q741 1033 646 941.50Q551 850 410 850Q269 850 176.50 943Q84 1036 84 1182Q84 1324 175 1415.50Q266 1507 410 1507M412 975Q496 975 553 1033Q610 1091 610 1180Q610 1268 554 1326Q498 1384 412 1384Q325 1384 269 1325.50Q213 1267 213 1180Q213 1091 270 1033Q327 975 412 975Z"  horiz-adv-x="834" vert-adv-y="2048"  />

      
      <glyph glyph-name="unia2" unicode="&#xa2;" d="M721-15L721-254L508-254L508-20Q467-13 427 0Q336 29 262 92.50Q188 156 142 256Q96 356 96 498Q96 635 142 734.50Q188 834 264 898.50Q340 963 436 994Q465 1003 495 1009L495 1255L708 1255L708 1020Q727 1017 746 1014Q801 1004 850 986.50Q899 969 939 945.50Q979 922 1005 897Q985 854 968.50 806Q952 758 942 705L848 705Q833 729 811.50 754.50Q790 780 763.50 801.50Q737 823 705.50 836.50Q674 850 639 850Q567 850 518 823.50Q469 797 436 749.50Q403 702 389 638.50Q375 575 375 500Q375 334 444.50 249Q514 164 645 164Q708 164 786 210Q864 256 923 324L997 254Q991 219 987 184.50Q983 150 981 115Q946 86 902 60.50Q858 35 810 15Q767-4 721-15Z"  horiz-adv-x="1178" vert-adv-y="2048"  />

      
      <glyph glyph-name="unia3" unicode="&#xa3;" d="M975 154L975 0L61 0L61 135Q236 169 236 457L236 694L78 694L78 842L236 842L236 1014Q236 1275 355 1391Q474 1507 698 1507Q786 1507 905 1481L905 1329Q782 1358 715 1358Q569 1358 504.50 1274Q440 1190 440 987L440 842L821 842L821 694L440 694L440 492Q440 254 289 154L975 154Z"  horiz-adv-x="1020" vert-adv-y="2048"  />

      
      <glyph glyph-name="unia7" unicode="&#xa7;" d="M467-217Q317-217 123-178L123-25Q331-74 451-74Q589-74 658-32Q727 10 727 94Q727 168 671 209Q615 250 469 315Q363 361 301.50 397.50Q240 434 196 496.50Q152 559 152 651Q152 834 373 924Q174 1019 174 1182Q174 1334 295 1420.50Q416 1507 616 1507Q788 1507 924 1470L924 1325Q778 1368 641 1368Q515 1368 452 1329Q389 1290 389 1212Q389 1147 442 1108.50Q495 1070 637 1014Q840 932 902.50 849Q965 766 965 662Q965 574 916 500Q867 426 780 383Q942 295 942 131Q942-43 823-130Q704-217 467-217M627 453Q690 478 729 527Q768 576 768 633Q768 707 713 757Q658 807 522 860Q441 833 394.50 782.50Q348 732 348 672Q348 594 410.50 551.50Q473 509 627 453Z"  horiz-adv-x="1087" vert-adv-y="2048"  />

      
      <glyph glyph-name="uni2022" unicode="&#x2022;" d="M551 1073Q693 1073 794 972Q895 871 895 729Q895 587 794 485Q693 383 551 383Q409 383 307 485Q205 587 205 729Q205 872 306.50 972.50Q408 1073 551 1073Z"  horiz-adv-x="1100" vert-adv-y="2048"  />

      
      <glyph glyph-name="unib6" unicode="&#xb6;" d="M1147 1491L1147 1343L993 1343L993-334L848-334L848 1343L643 1343L643-334L498-334L498 743Q285 743 178.50 835Q72 927 72 1112Q72 1303 179 1397Q286 1491 512 1491L1147 1491Z"  horiz-adv-x="1200" vert-adv-y="2048"  />

      
      <glyph glyph-name="unidf" unicode="&#xdf;" d="M510 174Q681 127 784 127Q989 127 989 305Q989 365 952.50 412Q916 459 795 514Q634 588 584.50 662.50Q535 737 535 829Q535 879 559 931.50Q583 984 674 1071Q750 1147 770.50 1194Q791 1241 791 1286Q791 1370 736.50 1415Q682 1460 602 1460Q480 1460 419 1385.50Q358 1311 358 1163L358 0L145 0L145 1163Q145 1381 261.50 1490Q378 1599 612 1599Q801 1599 902.50 1520.50Q1004 1442 1004 1300Q1004 1239 975 1178.50Q946 1118 854 1036Q782 975 763.50 940.50Q745 906 745 872Q745 821 779 780.50Q813 740 926 690Q1092 617 1146 531.50Q1200 446 1200 334Q1200 161 1097.50 72.50Q995-16 799-16Q669-16 510 20L510 174Z"  horiz-adv-x="1253" vert-adv-y="2048"  />

      
      <glyph glyph-name="uniae" unicode="&#xae;" d="M883 1507Q1226 1507 1454.50 1279Q1683 1051 1683 707Q1683 362 1454.50 134Q1226-94 883-94Q539-94 310.50 132Q82 358 82 707Q82 1055 311 1281Q540 1507 883 1507M883 47Q1161 47 1346.50 233.50Q1532 420 1532 707Q1532 990 1348 1178Q1164 1366 883 1366Q599 1366 416 1177Q233 988 233 707Q233 422 418 234.50Q603 47 883 47M1266 219L1079 219L854 629L748 629L748 219L584 219L584 1194L895 1194Q1056 1194 1132 1127.50Q1208 1061 1208 924Q1208 714 1014 649L1266 219M748 743L864 743Q957 743 999.50 784.50Q1042 826 1042 924Q1042 1004 1005 1041.50Q968 1079 877 1079L748 1079L748 743Z"  horiz-adv-x="1765" vert-adv-y="2048"  />

      
      <glyph glyph-name="unia9" unicode="&#xa9;" d="M883 1507Q1226 1507 1454.50 1279Q1683 1051 1683 707Q1683 362 1454.50 134Q1226-94 883-94Q539-94 310.50 132Q82 358 82 707Q82 1055 311 1281Q540 1507 883 1507M883 47Q1161 47 1346.50 233.50Q1532 420 1532 707Q1532 990 1348 1178Q1164 1366 883 1366Q599 1366 416 1177Q233 988 233 707Q233 422 418 234.50Q603 47 883 47M1122 227Q1042 205 938 205Q722 205 614 333Q506 461 506 717Q506 945 611.50 1075.50Q717 1206 946 1206Q1017 1206 1122 1180L1122 1049Q1026 1081 958 1081Q819 1081 752.50 995Q686 909 686 721Q686 509 752.50 418.50Q819 328 963 328Q1026 328 1122 354L1122 227Z"  horiz-adv-x="1765" vert-adv-y="2048"  />

      
      <glyph glyph-name="uni2122" unicode="&#x2122;" d="M170.55 928L170.55 1430.03L5.85 1430.03L5.85 1500.83L421.21 1500.83L421.21 1430.03L256.51 1430.03L256.51 928L170.55 928M484.25 919L566.15 1429.43Q577.40 1499.04 634.55 1499.04Q683.16 1499.04 703.41 1441.83L847.41 1033.81L990.06 1441.83Q1009.86 1499.04 1059.37 1499.04Q1116.52 1499.04 1127.77 1429.43L1209.67 919L1127.77 919L1053.97 1391.03L906.36 970.60Q886.11 912.60 847.41 912.60Q807.81 912.60 787.56 970.60L639.95 1391.03L567.05 919L484.25 919Z"  horiz-adv-x="1298" vert-adv-y="2048"  />

      
      <glyph glyph-name="unib4" unicode="&#xb4;" d="M250 1171Q184 1201 184 1209Q184 1217 195 1229L424 1524Q434 1539 447 1530L600 1469Q611 1465 616 1460L637 1451Q670 1439 643 1416L316 1152Q308 1146 293 1150Q267 1162 250 1171Z"  horiz-adv-x="772" vert-adv-y="2048"  />

      
      <glyph glyph-name="unia8" unicode="&#xa8;" d="M547 1550Q596 1550 631 1515Q666 1480 666 1432Q666 1382 630.50 1346.50Q595 1311 547 1311Q498 1311 462 1347Q426 1383 426 1432Q426 1481 461.50 1515.50Q497 1550 547 1550M137 1550Q186 1550 221 1515Q256 1480 256 1432Q256 1382 221 1346.50Q186 1311 137 1311Q88 1311 52 1347Q16 1383 16 1432Q16 1481 52 1515.50Q88 1550 137 1550Z"  horiz-adv-x="682" vert-adv-y="2048"  />

      
      <glyph glyph-name="uni2260" unicode="&#x2260;" d="M792 823L875 823L875 610L668 610L579 457L875 457L875 246L456 246L332 33Q266 48 247 48Q237 48 199 40.50Q161 33 100 19L232 246L71 246L71 457L355 457L444 610L71 610L71 823L568 823L698 1047Q730 1040 751 1036Q772 1032 782 1032Q793 1032 831 1039.50Q869 1047 930 1061L792 823Z"  horiz-adv-x="1003" vert-adv-y="2048"  />

      
      <glyph glyph-name="unic6" unicode="&#xc6;" d="M1796 0L1769 0L1720 0Q1516 0 1364.50 55Q1213 110 1108 223L1108 0L922 0L922 653L365 653L365 823L922 823L922 895Q922 1082 842.50 1181Q763 1280 614 1280Q465 1280 386 1181Q307 1082 307 895L307 0L117 0L117 899Q117 1155 252.50 1305.50Q388 1456 614 1456Q763 1456 881 1378Q999 1300 1065 1157Q1172 1297 1336.50 1365.50Q1501 1434 1729 1434Q1740 1434 1762.50 1433Q1785 1432 1796 1432L1796 1262Q1785 1262 1764 1263Q1743 1264 1733 1264Q1464 1264 1307.50 1152.50Q1151 1041 1112 823L1796 823L1796 653L1102 653Q1137 416 1294 294Q1451 172 1720 172Q1751 172 1766.50 172.50Q1782 173 1796 174L1796 0Z"  horiz-adv-x="1892" vert-adv-y="2048"  />

      
      <glyph glyph-name="unid8" unicode="&#xd8;" d="M459 281Q529 220 613.50 189Q698 158 795 158Q897 158 990 196.50Q1083 235 1155 307Q1237 387 1280 493.50Q1323 600 1323 721Q1323 816 1295 901Q1267 986 1210 1063L459 281M371 377L1120 1161Q1047 1221 965.50 1250.50Q884 1280 793 1280Q683 1280 585 1236.50Q487 1193 412 1112Q338 1033 300 933.50Q262 834 262 723Q262 625 289.50 538Q317 451 371 377M123-72L25 18L238 238Q153 342 110.50 464Q68 586 68 723Q68 869 123 1003Q178 1137 281 1241Q383 1345 513.50 1400.50Q644 1456 786 1456Q912 1456 1028 1415Q1144 1374 1247 1292L1446 1501L1544 1411L1341 1200Q1430 1089 1474 968.50Q1518 848 1518 717Q1518 571 1467 439.50Q1416 308 1319 205Q1215 94 1080 34.50Q945-25 795-25Q667-25 551 17.50Q435 60 332 145L123-72Z"  horiz-adv-x="1583" vert-adv-y="2048"  />

      
      <glyph glyph-name="uni221E" unicode="&#x221E;" d="M915 559Q964 471 1031 426Q1098 381 1182 381Q1283 381 1347 448.50Q1411 516 1411 621Q1411 722 1352 789Q1293 856 1204 856Q1122 856 1055.50 788.50Q989 721 915 559M793 666Q744 754 677.50 798Q611 842 526 842Q424 842 360.50 776Q297 710 297 604Q297 503 356 436Q415 369 504 369Q586 369 653 437Q720 505 793 666M864 483Q794 348 715.50 284.50Q637 221 543 221Q407 221 314 332.50Q221 444 221 610Q221 785 304.50 893Q388 1001 522 1001Q617 1001 693.50 938Q770 875 842 737Q910 875 989 940.50Q1068 1006 1165 1006Q1299 1006 1393 893.50Q1487 781 1487 614Q1487 439 1403.50 332Q1320 225 1186 225Q1092 225 1017.50 284.50Q943 344 864 483Z"  horiz-adv-x="1706" vert-adv-y="2048"  />

      
      <glyph glyph-name="unib1" unicode="&#xb1;" d="M995 795L641 795L641 430L461 430L461 795L104 795L104 973L461 973L461 1337L641 1337L641 973L995 973L995 795M995 334L995 154L106 154L106 334L995 334Z"  horiz-adv-x="1100" vert-adv-y="2048"  />

      
      <glyph glyph-name="uni2264" unicode="&#x2264;" d="M995 393L106 780L106 961L995 1348L995 1165L266 870L995 578L995 393M995 154L106 154L106 334L995 334L995 154Z"  horiz-adv-x="1100" vert-adv-y="2048"  />

      
      <glyph glyph-name="uni2265" unicode="&#x2265;" d="M995 780L106 393L106 578L834 870L106 1165L106 1348L995 961L995 780M995 154L106 154L106 334L995 334L995 154Z"  horiz-adv-x="1100" vert-adv-y="2048"  />

      
      <glyph glyph-name="unia5" unicode="&#xa5;" d="M795 1491L997 1491L696 754L940 754L940 608L637 608L606 532L606 446L940 446L940 301L606 301L606 0L391 0L391 301L76 301L76 446L391 446L391 530L362 608L76 608L76 754L307 754L29 1491L266 1491L518 745L795 1491Z"  horiz-adv-x="1026" vert-adv-y="2048"  />

      
      <glyph glyph-name="unib5" unicode="&#xb5;" d="M893 0L713 0L713 127Q672 53 604.50 16.50Q537-20 465-20Q330-20 246 90L246-352L66-352L66 983L246 983L246 410Q246 319 279 262Q305 215 359.50 183.50Q414 152 475 152Q539 152 592 182Q670 225 696 313Q713 367 713 449L713 983L893 983L893 0Z"  horiz-adv-x="974" vert-adv-y="2048"  />

      
      <glyph glyph-name="uni2211" unicode="&#x2211;" d="M1386-348L123-348L123-108L709 586L139 1264L139 1489L1376 1489L1376 1274L414 1274L995 586L379-135L1386-135L1386-348Z"  horiz-adv-x="1460" vert-adv-y="2048"  />

      
      <glyph glyph-name="uni220F" unicode="&#x220F;" d="M1524-348L1235-348L1235 1274L449 1274L449-348L162-348L162 1489L1524 1489L1524-348Z"  horiz-adv-x="1686" vert-adv-y="2048"  />

      
      <glyph glyph-name="uni222B" unicode="&#x222B;" d="M311-262Q417-262 431 426Q433 534 434 591Q446 1106 541 1328Q636 1550 838 1550Q918 1550 968 1508Q1018 1466 1018 1401Q1018 1347 986 1315.50Q954 1284 899 1284Q857 1284 829 1303Q801 1322 789 1357Q783 1372 778.50 1408Q774 1444 758 1444Q651 1444 637 825Q633 632 629 522Q612 43 517.50-164Q423-371 227-371Q148-371 97.50-329.50Q47-288 47-223Q47-167 81-135.50Q115-104 176-104Q209-104 233-118.50Q257-133 272-161Q282-179 287-220.50Q292-262 311-262Z"  horiz-adv-x="1067" vert-adv-y="2048"  />

      
      <glyph glyph-name="uniaa" unicode="&#xaa;" d="M586.18 877L586.18 1170.39Q586.18 1259.18 532.72 1316.78Q475.96 1377.38 379.61 1377.38Q285.23 1377.38 227.15 1317.98Q171.71 1261.58 171.71 1174.59Q171.71 1085.79 229.13 1027.59Q288.53 967.00 384.88 967.00Q468.70 967.00 547.24 1020.99L547.24 907.60Q469.36 867.40 371.69 867.40Q235.07 867.40 143.33 958.60Q53.58 1047.39 53.58 1172.19Q53.58 1303.58 143.99 1389.98Q234.41 1476.38 378.29 1476.38Q494.44 1476.38 583.87 1411.28Q673.29 1346.18 695.07 1243.59Q702.99 1203.99 702.99 1124.19L702.99 877L586.18 877M598 534L598 391L86 391L86 534L598 534Z"  horiz-adv-x="664" vert-adv-y="2048"  />

      
      <glyph glyph-name="uniba" unicode="&#xba;" d="M192.03 1173.39Q192.03 1090.59 248.79 1030.59Q308.85 968.20 398.61 968.20Q488.36 968.20 548.42 1030.59Q605.18 1090.59 605.18 1173.39Q605.18 1256.18 548.42 1315.58Q488.36 1377.38 398.61 1377.38Q308.85 1377.38 249.45 1315.58Q192.03 1256.18 192.03 1173.39M71.26 1172.19Q71.26 1296.38 166.62 1386.38Q261.99 1476.38 398.61 1476.38Q536.54 1476.38 631.25 1386.98Q725.95 1297.58 725.95 1172.19Q725.95 1045.59 632.24 956.80Q537.20 866.20 398.61 866.20Q261.33 866.20 165.63 957.40Q71.26 1046.79 71.26 1172.19M691 534L691 391L179 391L179 534L691 534Z"  horiz-adv-x="850" vert-adv-y="2048"  />

      
      <glyph glyph-name="unie6" unicode="&#xe6;" d="M751 553Q493 512 362 443.50Q231 375 231 281Q231 220 280.50 181.50Q330 143 410 143Q565 143 660.50 237.50Q756 332 756 487Q756 498 755 512Q754 526 751 553M1745 434Q1709 223 1575.50 101.50Q1442-20 1247-20Q1124-20 1019.50 37Q915 94 840 203Q770 93 660 36.50Q550-20 408-20Q246-20 146.50 64Q47 148 47 283Q47 440 206 544.50Q365 649 694 709Q657 766 594 795.50Q531 825 446 825Q385 825 314 804Q243 783 147 735L68 872Q164 933 263 963Q362 993 465 993Q594 993 691.50 942Q789 891 854 788Q924 890 1026 944.50Q1128 999 1249 999Q1413 999 1533 911Q1653 823 1702 666L1069 401L1012 545L1470 737Q1426 786 1371 811Q1316 836 1251 836Q1119 836 1028.50 737.50Q938 639 938 494Q938 350 1029 251Q1120 152 1251 152Q1376 152 1461 234.50Q1546 317 1567 461L1745 434Z"  horiz-adv-x="1804" vert-adv-y="2048"  />

      
      <glyph glyph-name="unif8" unicode="&#xf8;" d="M295 307L737 774Q694 805 650 820.50Q606 836 559 836Q430 836 337 736Q244 636 244 496Q244 440 256.50 393.50Q269 347 295 307M23 20L168 174Q115 244 88 322.50Q61 401 61 489Q61 591 97.50 682.50Q134 774 203 846Q275 921 366.50 961Q458 1001 557 1001Q639 1001 714 974.50Q789 948 854 895L993 1040L1081 956L942 811Q998 738 1025.50 659Q1053 580 1053 492Q1053 272 906.50 127Q760-18 537-18Q463-18 392.50 8Q322 34 254 86L111-63L23 20M819 682L375 215Q413 185 458.50 169.50Q504 154 555 154Q691 154 780.50 250.50Q870 347 870 494Q870 545 857.50 591.50Q845 638 819 682Z"  horiz-adv-x="1114" vert-adv-y="2048"  />

      
      <glyph glyph-name="unibf" unicode="&#xbf;" d="M411 802L411 348Q401 348 381 349Q360 349 350 349Q217 349 137 296Q42 233 42 106Q42-2 110-69Q178-136 286-136Q402-136 465.50-64.50Q529 7 532 124L714 124Q711-74 592-195Q473-316 276-316Q87-316-34.50-197Q-156-78-156 110Q-156 286-46 388Q57 483 237 495L237 802L411 802M434 1038Q434 988 399.50 953.50Q365 919 315 919Q265 919 230.50 953.50Q196 988 196 1038Q196 1087 231 1120.50Q266 1154 315 1154Q364 1154 399 1120.50Q434 1087 434 1038Z"  horiz-adv-x="802" vert-adv-y="2048"  />

      
      <glyph glyph-name="unia1" unicode="&#xa1;" d="M310 814L310-292L129-292L129 814L310 814M338 1038Q338 987 304 953Q270 919 219 919Q169 919 135 953.50Q101 988 101 1038Q101 1087 135.50 1120.50Q170 1154 219 1154Q268 1154 303 1120.50Q338 1087 338 1038Z"  horiz-adv-x="495" vert-adv-y="2048"  />

      
      <glyph glyph-name="uniac" unicode="&#xac;" d="M995 428L815 428L815 815L106 815L106 995L995 995L995 428Z"  horiz-adv-x="1100" vert-adv-y="2048"  />

      
      <glyph glyph-name="uni221A" unicode="&#x221A;" d="M1124 1870L811-78L315 942L119 852L84 915L385 1067L791 244L1051 1870L1124 1870Z"  horiz-adv-x="1124" vert-adv-y="2048"  />

      
      <glyph glyph-name="uni0192" unicode="&#x0192;" d="M416 1163Q446 1320 463.50 1378Q481 1436 519 1488Q557 1540 623.50 1569.50Q690 1599 793 1599Q904 1599 999 1583L977 1436Q895 1456 815 1456Q751 1456 716.50 1423.50Q682 1391 669 1348Q656 1305 629 1163L864 1163L840 1022L602 1022L412 2Q375-197 286.50-268.50Q198-340 16-340L16-201Q96-201 134.50-169.50Q173-138 195-20L389 1022L170 1022L195 1163L416 1163Z"  horiz-adv-x="1022" vert-adv-y="2048"  />

      
      <glyph glyph-name="uni2248" unicode="&#x2248;" d="M1087 975Q979 799 829 799Q778 799 727 817Q696 828 627.50 863.50Q559 899 520 914Q453 938 395 938Q336 938 291 904.50Q246 871 215 791L141 918Q178 994 231 1037Q303 1094 397 1094Q459 1094 522 1071Q555 1061 655 1014Q711 990 733 981Q797 955 829 955Q891 955 946 1008Q985 1045 1014 1102L1087 975M1087 493Q979 317 829 317Q778 317 727 335Q696 346 627.50 381.50Q559 417 520 432Q453 456 395 456Q336 456 291 422.50Q246 389 215 309L141 436Q178 512 231 555Q303 612 397 612Q459 612 522 589Q555 579 655 532Q711 508 733 499Q797 473 829 473Q891 473 946 526Q985 563 1014 620L1087 493Z"  horiz-adv-x="1064" vert-adv-y="2048"  />

      
      <glyph glyph-name="uniab" unicode="&#xab;" d="M264 596L553 152L360 152L82 543L82 649L360 1040L553 1040L264 596M678 596L967 152L774 152L496 543L496 649L774 1040L967 1040L678 596Z"  horiz-adv-x="1039" vert-adv-y="2048"  />

      
      <glyph glyph-name="unibb" unicode="&#xbb;" d="M543 649L543 543L264 152L72 152L360 596L72 1040L264 1040L543 649M957 649L957 543L678 152L486 152L774 596L486 1040L678 1040L957 649Z"  horiz-adv-x="1039" vert-adv-y="2048"  />

      
      <glyph glyph-name="uni2026" unicode="&#x2026;" d="M160 102Q160 153 194 187Q228 221 279 221Q329 221 363 186.50Q397 152 397 102Q397 53 362.50 19.50Q328-14 279-14Q230-14 195 19.50Q160 53 160 102M843 102Q843 153 877 187Q911 221 962 221Q1012 221 1046 186.50Q1080 152 1080 102Q1080 53 1045.50 19.50Q1011-14 962-14Q913-14 878 19.50Q843 53 843 102M1526 102Q1526 153 1560 187Q1594 221 1645 221Q1695 221 1729 186.50Q1763 152 1763 102Q1763 53 1728.50 19.50Q1694-14 1645-14Q1596-14 1561 19.50Q1526 53 1526 102Z"  horiz-adv-x="2048" vert-adv-y="2048"  />

      
      <glyph glyph-name="unic0" unicode="&#xc0;" d="M922 0L922 657L365 657L365 838L922 838L922 895Q922 1280 614 1280Q307 1280 307 895L307 0L117 0L117 899Q117 1143 242 1294Q375 1456 614 1456Q853 1456 987 1294Q1112 1143 1112 899L1112 0L922 0M803 1445L697 1445L416 1793L594 1793L803 1445Z"  horiz-adv-x="1355" vert-adv-y="2048"  />

      
      <glyph glyph-name="unic3" unicode="&#xc3;" d="M922 0L922 657L365 657L365 838L922 838L922 895Q922 1280 614 1280Q307 1280 307 895L307 0L117 0L117 899Q117 1143 242 1294Q375 1456 614 1456Q853 1456 987 1294Q1112 1143 1112 899L1112 0L922 0M1034 1749Q958 1503 839 1503Q783 1503 691 1566Q644 1594 608 1610.50Q572 1627 543 1627Q511 1627 473.50 1602.50Q436 1578 406 1518Q397 1540 387.50 1536.50Q378 1533 367 1549Q437 1806 600 1806Q657 1806 735 1745Q777 1717 807.50 1703Q838 1689 862 1689Q900 1689 938 1720Q976 1751 1004 1785L1034 1749Z"  horiz-adv-x="1355" vert-adv-y="2048"  />

      
      <glyph glyph-name="unid5" unicode="&#xd5;" d="M66 717Q66 1021 277.50 1238.50Q489 1456 793 1456Q1095 1456 1306.50 1238Q1518 1020 1518 717Q1518 413 1308 195Q1095-25 793-25Q488-25 277 193Q66 411 66 717M260 719Q260 491 411 326Q567 156 793 156Q1017 156 1173 327Q1323 492 1323 719Q1323 944 1172 1110Q1016 1280 793 1280Q567 1280 411 1111Q260 947 260 719M1190 1745Q1114 1499 995 1499Q939 1499 847 1562Q800 1590 764 1606.50Q728 1623 699 1623Q667 1623 629.50 1598.50Q592 1574 562 1514Q553 1536 543.50 1532.50Q534 1529 523 1545Q593 1802 756 1802Q813 1802 891 1741Q933 1713 963.50 1699Q994 1685 1018 1685Q1056 1685 1094 1716Q1132 1747 1160 1781L1190 1745Z"  horiz-adv-x="1703" vert-adv-y="2048"  />

      
      <glyph glyph-name="uni0152" unicode="&#x0152;" d="M2207 174L2208 0L2183 0L2134 0Q1876 0 1701.50 85.50Q1527 171 1417 352Q1314 171 1151.50 73Q989-25 791-25Q693-25 600.50 0.50Q508 26 428 76Q255 181 160.50 348.50Q66 516 66 717Q66 865 120.50 998.50Q175 1132 279 1239Q383 1345 514.50 1400.50Q646 1456 791 1456Q987 1456 1149 1358.50Q1311 1261 1419 1077Q1522 1258 1698.50 1346Q1875 1434 2136 1434Q2165 1434 2179.50 1433.50Q2194 1433 2208 1431L2208 1262Q2194 1263 2180 1263.50Q2166 1264 2138 1264Q1877 1264 1722.50 1153.50Q1568 1043 1522 823L2208 823L2208 653L1513 653Q1549 416 1706 294Q1863 172 2132 172Q2162 172 2177.50 172.50Q2193 173 2207 174M260 719Q260 603 300.50 501.50Q341 400 418 319Q494 240 591 198Q688 156 793 156Q899 156 994.50 198Q1090 240 1165 319Q1242 401 1282.50 503Q1323 605 1323 719Q1323 832 1283 933Q1243 1034 1165 1116Q1090 1196 994.50 1238Q899 1280 793 1280Q687 1280 590 1238.50Q493 1197 418 1118Q340 1036 300 934.50Q260 833 260 719Z"  horiz-adv-x="2290" vert-adv-y="2048"  />

      
      <glyph glyph-name="uni0153" unicode="&#x0153;" d="M1851 434Q1815 223 1682.50 101.50Q1550-20 1358-20Q1237-20 1138 33Q1039 86 958 195Q874 85 775 32.50Q676-20 557-20Q458-20 368 18Q278 56 207 129Q137 201 99 294.50Q61 388 61 492Q61 594 98.50 687Q136 780 207 852Q275 923 365.50 961Q456 999 557 999Q679 999 779.50 945Q880 891 958 784Q1035 889 1133.50 944Q1232 999 1343 999Q1500 999 1621 921.50Q1742 844 1817 694L1176 338L1100 471L1577 737Q1533 785 1478.50 809.50Q1424 834 1358 834Q1225 834 1134.50 736.50Q1044 639 1044 494Q1044 350 1135.50 251Q1227 152 1358 152Q1483 152 1567.50 234.50Q1652 317 1673 461L1851 434M244 494Q244 351 335.50 251.50Q427 152 557 152Q687 152 778.50 251.50Q870 351 870 494Q870 636 779 735Q688 834 557 834Q427 834 335.50 735Q244 636 244 494Z"  horiz-adv-x="1911" vert-adv-y="2048"  />

      
      <glyph glyph-name="uni2013" unicode="&#x2013;" d="M956 705L956 551L68 551L68 705L956 705Z"  horiz-adv-x="1024" vert-adv-y="2048"  />

      
      <glyph glyph-name="uni2014" unicode="&#x2014;" d="M1985 705L1985 551L72 551L72 705L1985 705Z"  horiz-adv-x="2048" vert-adv-y="2048"  />

      
      <glyph glyph-name="uni2015" unicode="&#x2015;" d="M1985 705L1985 551L72 551L72 705L1985 705Z"  horiz-adv-x="2048" vert-adv-y="2048"  />

      
      <glyph glyph-name="uni201C" unicode="&#x201C;" d="M711 1020L559 1020L465 1434L637 1434L711 1020M332 1020L180 1020L86 1434L258 1434L332 1020Z"  horiz-adv-x="796" vert-adv-y="2048"  />

      
      <glyph glyph-name="uni201D" unicode="&#x201D;" d="M711 1434L616 1020L465 1020L539 1434L711 1434M332 1434L238 1020L86 1020L160 1434L332 1434Z"  horiz-adv-x="796" vert-adv-y="2048"  />

      
      <glyph glyph-name="uni2018" unicode="&#x2018;" d="M340 1020L188 1020L94 1434L266 1434L340 1020Z"  horiz-adv-x="454" vert-adv-y="2048"  />

      
      <glyph glyph-name="uni2019" unicode="&#x2019;" d="M360 1434L266 1020L115 1020L188 1434L360 1434Z"  horiz-adv-x="454" vert-adv-y="2048"  />

      
      <glyph glyph-name="unif7" unicode="&#xf7;" d="M549 1212Q602 1212 640 1174.50Q678 1137 678 1083Q678 1030 640 992Q602 954 549 954Q495 954 457.50 992Q420 1030 420 1083Q420 1137 457.50 1174.50Q495 1212 549 1212M995 639L106 639L106 817L995 817L995 639M549 502Q603 502 640.50 465Q678 428 678 375Q678 321 640.50 283.50Q603 246 549 246Q495 246 457.50 283.50Q420 321 420 375Q420 428 457.50 465Q495 502 549 502Z"  horiz-adv-x="1100" vert-adv-y="2048"  />

      
      <glyph glyph-name="uniff" unicode="&#xff;" d="M940 981L940 446Q940 71 610-10L610-436L434-436L434-10Q106 71 106 446L106 981L281 981L281 414Q281 302 346 229Q413 152 524 152Q635 152 702 228Q766 301 766 414L766 981L940 981M730 1550Q779 1550 814 1515Q849 1480 849 1432Q849 1382 813.50 1346.50Q778 1311 730 1311Q681 1311 645 1347Q609 1383 609 1432Q609 1481 644.50 1515.50Q680 1550 730 1550M320 1550Q369 1550 404 1515Q439 1480 439 1432Q439 1382 404 1346.50Q369 1311 320 1311Q271 1311 235 1347Q199 1383 199 1432Q199 1481 235 1515.50Q271 1550 320 1550Z"  horiz-adv-x="1050" vert-adv-y="2048"  />

      
      <glyph glyph-name="uni0178" unicode="&#x0178;" d="M461 0L461 549Q104 640 104 1042L104 1432L295 1432L295 1040Q295 715 555 715Q815 715 815 1040L815 1432L1006 1432L1006 1042Q1006 640 649 549L649 0L461 0M816 1878Q865 1878 900 1843Q935 1808 935 1760Q935 1710 899.50 1674.50Q864 1639 816 1639Q767 1639 731 1675Q695 1711 695 1760Q695 1809 730.50 1843.50Q766 1878 816 1878M406 1878Q455 1878 490 1843Q525 1808 525 1760Q525 1710 490 1674.50Q455 1639 406 1639Q357 1639 321 1675Q285 1711 285 1760Q285 1809 321 1843.50Q357 1878 406 1878Z"  horiz-adv-x="1218" vert-adv-y="2048"  />

      
      <glyph glyph-name="uni2044" unicode="&#x2044;" d="M418 1491L596 1491L-254 0L-432 0L418 1491Z"  horiz-adv-x="164" vert-adv-y="2048"  />

      
      <glyph glyph-name="uni20AC" unicode="&#x20AC;" d="M375 489Q379 471 385 454Q415 350 468 282.50Q521 215 593.50 182.50Q666 150 749 150Q800 150 848 168Q896 186 938.50 214Q981 242 1016.50 271.50Q1052 301 1078 324L1132 260L1111 100Q1092 82 1055.50 59.50Q1019 37 968.50 15.50Q918-6 858-20.50Q798-35 734-35Q596-35 480.50 14Q365 63 280.50 157.50Q196 252 148 388Q131 436 120 489L-49 489L-49 647L101 647Q100 672 100 698Q100 753 105 804L-49 804L-49 962L134 962Q140 985 148 1008Q196 1143 281 1237Q366 1331 485.50 1380.50Q605 1430 749 1430Q859 1430 968 1395Q1077 1360 1165 1313Q1138 1251 1128 1208Q1118 1165 1113 1137Q1113 1126 1112 1105.50Q1111 1085 1111 1083L1033 1079Q1016 1100 989 1129.50Q962 1159 925.50 1184.50Q889 1210 844.50 1228.50Q800 1247 749 1247Q666 1247 593.50 1214.50Q521 1182 468 1115Q420 1053 390 962L755 962L755 804L359 804Q354 754 354 698Q354 672 355 647L755 647L755 489L375 489Z"  horiz-adv-x="1178" vert-adv-y="2048"  />

      
      <glyph glyph-name="uni2039" unicode="&#x2039;" d="M264 596L553 152L360 152L82 543L82 649L360 1040L553 1040L264 596Z"  horiz-adv-x="625" vert-adv-y="2048"  />

      
      <glyph glyph-name="uni203A" unicode="&#x203A;" d="M543 649L543 543L264 152L72 152L360 596L72 1040L264 1040L543 649Z"  horiz-adv-x="625" vert-adv-y="2048"  />

      
      <glyph glyph-name="uni2021" unicode="&#x2021;" d="M430 930L90 913L90 1098L430 1081L408 1548L612 1548L590 1081L930 1098L930 913L590 930L590 479L930 496L930 311L590 328L612-139L408-139L430 328L90 311L90 496L430 479L430 930Z"  horiz-adv-x="1020" vert-adv-y="2048"  />

      
      <glyph glyph-name="uni201A" unicode="&#x201A;" d="M360 97L266-317L115-317L188 97L360 97Z"  horiz-adv-x="446" vert-adv-y="2048"  />

      
      <glyph glyph-name="uni201E" unicode="&#x201E;" d="M711 97L616-317L465-317L539 97L711 97M332 97L238-317L86-317L160 97L332 97Z"  horiz-adv-x="827" vert-adv-y="2048"  />

      
      <glyph glyph-name="uni2030" unicode="&#x2030;" d="M399 1501Q553 1501 632 1400Q711 1299 711 1069Q711 818 631.50 717Q552 616 397 616Q241 616 161.50 718Q82 820 82 1069Q82 1295 162 1398Q242 1501 399 1501M397 735Q468 735 500 798Q532 861 532 1069Q532 1271 498.50 1326.50Q465 1382 397 1382Q329 1382 294.50 1326.50Q260 1271 260 1069Q260 860 293 797.50Q326 735 397 735M1210 1491L1389 1491L539 0L360 0L1210 1491M2116 874Q2270 874 2348.50 773Q2427 672 2427 442Q2427 191 2348 90.50Q2269-10 2114-10Q1958-10 1878 91.50Q1798 193 1798 442Q1798 668 1878 771Q1958 874 2116 874M2114 109Q2184 109 2216.50 171.50Q2249 234 2249 442Q2249 645 2215 700.50Q2181 756 2114 756Q2045 756 2010.50 700Q1976 644 1976 442Q1976 233 2009 171Q2042 109 2114 109M1356 874Q1510 874 1588.50 773Q1667 672 1667 442Q1667 191 1588 90.50Q1509-10 1354-10Q1198-10 1118 91.50Q1038 193 1038 442Q1038 668 1118 771Q1198 874 1356 874M1354 109Q1425 109 1457 171.50Q1489 234 1489 442Q1489 645 1455 700.50Q1421 756 1354 756Q1285 756 1251 700Q1217 644 1217 442Q1217 233 1249.50 171Q1282 109 1354 109Z"  horiz-adv-x="2509" vert-adv-y="2048"  />

      
      <glyph glyph-name="unic2" unicode="&#xc2;" d="M922 0L922 657L365 657L365 838L922 838L922 895Q922 1280 614 1280Q307 1280 307 895L307 0L117 0L117 899Q117 1143 242 1294Q375 1456 614 1456Q853 1456 987 1294Q1112 1143 1112 899L1112 0L922 0M1026 1517L1027 1517L1027 1466L1026 1466Q1024 1452 1008 1452Q1001 1452 994 1456L684 1631L383 1462Q376 1458 369 1458Q350 1458 350 1476Q350 1484 354 1490L354 1514Q350 1519 350 1527Q350 1538 358 1546L673 1855Q691 1872 704 1855L1019 1540Q1027 1532 1027 1523Q1027 1520 1026 1517Z"  horiz-adv-x="1355" vert-adv-y="2048"  />

      
      <glyph glyph-name="unica" unicode="&#xca;" d="M958 1262Q934 1264 895 1264Q364 1264 274 823L958 823L958 653L264 653Q337 172 887 172Q934 172 958 174L958 0L903 0Q585 0 420 100Q68 314 68 717Q68 971 221.50 1162.50Q375 1354 623 1407Q743 1432 958 1432L958 1262M850 1517L851 1517L851 1466L850 1466Q848 1452 832 1452Q825 1452 818 1456L508 1631L207 1462Q200 1458 193 1458Q174 1458 174 1476Q174 1484 178 1490L178 1514Q174 1519 174 1527Q174 1538 182 1546L497 1855Q515 1872 528 1855L843 1540Q851 1532 851 1523Q851 1520 850 1517Z"  horiz-adv-x="982" vert-adv-y="2048"  />

      
      <glyph glyph-name="unic1" unicode="&#xc1;" d="M922 0L922 657L365 657L365 838L922 838L922 895Q922 1280 614 1280Q307 1280 307 895L307 0L117 0L117 899Q117 1143 242 1294Q375 1456 614 1456Q853 1456 987 1294Q1112 1143 1112 899L1112 0L922 0M635 1521Q569 1551 569 1559Q569 1567 580 1579L809 1874Q819 1889 832 1880L985 1819Q996 1815 1001 1810L1022 1801Q1055 1789 1028 1766L701 1502Q693 1496 678 1500Q652 1512 635 1521Z"  horiz-adv-x="1355" vert-adv-y="2048"  />

      
      <glyph glyph-name="unicb" unicode="&#xcb;" d="M958 1262Q934 1264 895 1264Q364 1264 274 823L958 823L958 653L264 653Q337 172 887 172Q934 172 958 174L958 0L903 0Q585 0 420 100Q68 314 68 717Q68 971 221.50 1162.50Q375 1354 623 1407Q743 1432 958 1432L958 1262M708 1746Q757 1746 792 1711Q827 1676 827 1628Q827 1578 791.50 1542.50Q756 1507 708 1507Q659 1507 623 1543Q587 1579 587 1628Q587 1677 622.50 1711.50Q658 1746 708 1746M298 1746Q347 1746 382 1711Q417 1676 417 1628Q417 1578 382 1542.50Q347 1507 298 1507Q249 1507 213 1543Q177 1579 177 1628Q177 1677 213 1711.50Q249 1746 298 1746Z"  horiz-adv-x="982" vert-adv-y="2048"  />

      
      <glyph glyph-name="unic8" unicode="&#xc8;" d="M958 1262Q934 1264 895 1264Q364 1264 274 823L958 823L958 653L264 653Q337 172 887 172Q934 172 958 174L958 0L903 0Q585 0 420 100Q68 314 68 717Q68 971 221.50 1162.50Q375 1354 623 1407Q743 1432 958 1432L958 1262M627 1424L521 1424L240 1772L418 1772L627 1424Z"  horiz-adv-x="982" vert-adv-y="2048"  />

      
      <glyph glyph-name="unicd" unicode="&#xcd;" d="M137 0L137 1432L328 1432L328 0L137 0M245 1503Q179 1533 179 1541Q179 1549 190 1561L419 1856Q429 1871 442 1862L595 1801Q606 1797 611 1792L632 1783Q665 1771 638 1748L311 1484Q303 1478 288 1482Q262 1494 245 1503Z"  horiz-adv-x="563" vert-adv-y="2048"  />

      
      <glyph glyph-name="unice" unicode="&#xce;" d="M139 0L139 1432L330 1432L330 0L139 0M643 1517L644 1517L644 1466L643 1466Q641 1452 625 1452Q618 1452 611 1456L301 1631L0 1462Q-7 1458-14 1458Q-33 1458-33 1476Q-33 1484-29 1490L-29 1514Q-33 1519-33 1527Q-33 1538-25 1546L290 1855Q308 1872 321 1855L636 1540Q644 1532 644 1523Q644 1520 643 1517Z"  horiz-adv-x="563" vert-adv-y="2048"  />

      
      <glyph glyph-name="unicf" unicode="&#xcf;" d="M137 0L137 1432L328 1432L328 0L137 0M499 1810Q548 1810 583 1775Q618 1740 618 1692Q618 1642 582.50 1606.50Q547 1571 499 1571Q450 1571 414 1607Q378 1643 378 1692Q378 1741 413.50 1775.50Q449 1810 499 1810M89 1810Q138 1810 173 1775Q208 1740 208 1692Q208 1642 173 1606.50Q138 1571 89 1571Q40 1571 4 1607Q-32 1643-32 1692Q-32 1741 4 1775.50Q40 1810 89 1810Z"  horiz-adv-x="563" vert-adv-y="2048"  />

      
      <glyph glyph-name="unicc" unicode="&#xcc;" d="M137 0L137 1432L328 1432L328 0L137 0M392 1445L286 1445L5 1793L183 1793L392 1445Z"  horiz-adv-x="563" vert-adv-y="2048"  />

      
      <glyph glyph-name="unid3" unicode="&#xd3;" d="M66 717Q66 1021 277.50 1238.50Q489 1456 793 1456Q1095 1456 1306.50 1238Q1518 1020 1518 717Q1518 413 1308 195Q1095-25 793-25Q488-25 277 193Q66 411 66 717M260 719Q260 491 411 326Q567 156 793 156Q1017 156 1173 327Q1323 492 1323 719Q1323 944 1172 1110Q1016 1280 793 1280Q567 1280 411 1111Q260 947 260 719M799 1521Q733 1551 733 1559Q733 1567 744 1579L973 1874Q983 1889 996 1880L1149 1819Q1160 1815 1165 1810L1186 1801Q1219 1789 1192 1766L865 1502Q857 1496 842 1500Q816 1512 799 1521Z"  horiz-adv-x="1703" vert-adv-y="2048"  />

      
      <glyph glyph-name="unid4" unicode="&#xd4;" d="M66 717Q66 1021 277.50 1238.50Q489 1456 793 1456Q1095 1456 1306.50 1238Q1518 1020 1518 717Q1518 413 1308 195Q1095-25 793-25Q488-25 277 193Q66 411 66 717M260 719Q260 491 411 326Q567 156 793 156Q1017 156 1173 327Q1323 492 1323 719Q1323 944 1172 1110Q1016 1280 793 1280Q567 1280 411 1111Q260 947 260 719M1208 1517L1209 1517L1209 1466L1208 1466Q1206 1452 1190 1452Q1183 1452 1176 1456L866 1631L565 1462Q558 1458 551 1458Q532 1458 532 1476Q532 1484 536 1490L536 1514Q532 1519 532 1527Q532 1538 540 1546L855 1855Q873 1872 886 1855L1201 1540Q1209 1532 1209 1523Q1209 1520 1208 1517Z"  horiz-adv-x="1703" vert-adv-y="2048"  />

      
      <glyph glyph-name="unid2" unicode="&#xd2;" d="M66 717Q66 1021 277.50 1238.50Q489 1456 793 1456Q1095 1456 1306.50 1238Q1518 1020 1518 717Q1518 413 1308 195Q1095-25 793-25Q488-25 277 193Q66 411 66 717M260 719Q260 491 411 326Q567 156 793 156Q1017 156 1173 327Q1323 492 1323 719Q1323 944 1172 1110Q1016 1280 793 1280Q567 1280 411 1111Q260 947 260 719M982 1450L876 1450L595 1798L773 1798L982 1450Z"  horiz-adv-x="1703" vert-adv-y="2048"  />

      
      <glyph glyph-name="unida" unicode="&#xda;" d="M307 1432L307 541Q307 156 614 156Q922 156 922 541L922 1432L1112 1432L1112 532Q1112 289 987 138Q852-25 614-25Q376-25 242 138Q117 289 117 532L117 1432L307 1432M648 1499Q582 1529 582 1537Q582 1545 593 1557L822 1852Q832 1867 845 1858L998 1797Q1009 1793 1014 1788L1035 1779Q1068 1767 1041 1744L714 1480Q706 1474 691 1478Q665 1490 648 1499Z"  horiz-adv-x="1408" vert-adv-y="2048"  />

      
      <glyph glyph-name="unidb" unicode="&#xdb;" d="M307 1432L307 541Q307 156 614 156Q922 156 922 541L922 1432L1112 1432L1112 532Q1112 289 987 138Q852-25 614-25Q376-25 242 138Q117 289 117 532L117 1432L307 1432M1056 1517L1057 1517L1057 1466L1056 1466Q1054 1452 1038 1452Q1031 1452 1024 1456L714 1631L413 1462Q406 1458 399 1458Q380 1458 380 1476Q380 1484 384 1490L384 1514Q380 1519 380 1527Q380 1538 388 1546L703 1855Q721 1872 734 1855L1049 1540Q1057 1532 1057 1523Q1057 1520 1056 1517Z"  horiz-adv-x="1408" vert-adv-y="2048"  />

      
      <glyph glyph-name="unid9" unicode="&#xd9;" d="M307 1432L307 541Q307 156 614 156Q922 156 922 541L922 1432L1112 1432L1112 532Q1112 289 987 138Q852-25 614-25Q376-25 242 138Q117 289 117 532L117 1432L307 1432M860 1424L754 1424L473 1772L651 1772L860 1424Z"  horiz-adv-x="1408" vert-adv-y="2048"  />

      
      <glyph glyph-name="uni0131" unicode="&#x0131;" d="M121 0L121 981L297 981L297 0L121 0M102 1260Q102 1305 133 1335.50Q164 1366 209 1366Q254 1366 284.50 1335.50Q315 1305 315 1260Q315 1214 285 1182.50Q255 1151 209 1151Q164 1151 133 1183Q102 1215 102 1260Z"  horiz-adv-x="521" vert-adv-y="2048"  />

      
      <glyph glyph-name="uni02C6" unicode="&#x02C6;" d="M690 1189L691 1189L691 1138L690 1138Q688 1124 672 1124Q665 1124 658 1128L348 1303L47 1134Q40 1130 33 1130Q14 1130 14 1148Q14 1156 18 1162L18 1186Q14 1191 14 1199Q14 1210 22 1218L337 1527Q355 1544 368 1527L683 1212Q691 1204 691 1195Q691 1192 690 1189Z"  horiz-adv-x="682" vert-adv-y="2048"  />

      
      <glyph glyph-name="uni02DC" unicode="&#x02DC;" d="M697 1430Q621 1184 502 1184Q446 1184 354 1247Q307 1275 271 1291.50Q235 1308 206 1308Q174 1308 136.50 1283.50Q99 1259 69 1199Q60 1221 50.50 1217.50Q41 1214 30 1230Q100 1487 263 1487Q320 1487 398 1426Q440 1398 470.50 1384Q501 1370 525 1370Q563 1370 601 1401Q639 1432 667 1466L697 1430Z"  horiz-adv-x="717" vert-adv-y="2048"  />

      
      <glyph glyph-name="uni02D8" unicode="&#x02D8;" d="M659 1466Q616 1340 548 1278Q468 1204 342 1204Q110 1204 24 1466L173 1466Q221 1337 342 1337Q410 1337 459 1384Q493 1416 512 1466L659 1466Z"  horiz-adv-x="682" vert-adv-y="2048"  />

      
      <glyph glyph-name="uni02D9" unicode="&#x02D9;" d="Z"  horiz-adv-x="524" vert-adv-y="2048"  />

      
      <glyph glyph-name="uni02DA" unicode="&#x02DA;" d="M342 1661Q431 1661 486 1603.50Q541 1546 541 1462Q541 1375 485 1318.50Q429 1262 342 1262Q259 1262 200 1318.50Q141 1375 141 1462Q141 1546 197.50 1603.50Q254 1661 342 1661M342 1350Q390 1350 419.50 1381Q449 1412 449 1462Q449 1512 420 1542.50Q391 1573 342 1573Q293 1573 263 1542.50Q233 1512 233 1462Q233 1412 263 1381Q293 1350 342 1350Z"  horiz-adv-x="682" vert-adv-y="2048"  />

      
      <glyph glyph-name="unib8" unicode="&#xb8;" d="M348 27L348-33Q420-35 459-70.50Q498-106 498-166Q498-342 184-348L184-244Q282-240 321-222.50Q360-205 360-168Q360-125 327-110Q294-95 238-94L244 27L348 27Z"  horiz-adv-x="682" vert-adv-y="2048"  />

      
      <glyph glyph-name="uni02DD" unicode="&#x02DD;" d="Z"  horiz-adv-x="1024" vert-adv-y="2048"  />

      
      <glyph glyph-name="uni02C7" unicode="&#x02C7;" d="M506 1583L668 1583L446 1272L238 1272L16 1583L178 1583L342 1374L506 1583Z"  horiz-adv-x="682" vert-adv-y="2048"  />

      
      <glyph glyph-name="uni0141" unicode="&#x0141;" d="M117 1432L307 1432L307 469Q307 176 592 176L852 176L852 0L625 0Q117 0 117 500L117 1432M1117 614L1117 471L93 471L93 614L1117 614Z"  horiz-adv-x="994" vert-adv-y="2048"  />

      
      <glyph glyph-name="uni0142" unicode="&#x0142;" d="M121 0L121 1432L297 1432L297 0L121 0M776 673L776 530L-248 530L-248 673L776 673Z"  horiz-adv-x="499" vert-adv-y="2048"  />

      
      <glyph glyph-name="uni0160" unicode="&#x0160;" d="M72 0L72 190L561 190Q799 190 799 371Q799 454 725 518Q683 554 578 608L338 731Q78 864 78 1085Q78 1262 214 1353Q331 1432 516 1432L930 1432L930 1243L453 1243Q377 1243 328 1206Q274 1166 274 1092Q274 1032 316 985Q358 938 520 856L729 750Q997 614 997 381Q997 184 854 85Q730 0 524 0L72 0M669 1911L831 1911L609 1600L401 1600L179 1911L341 1911L505 1702L669 1911Z"  horiz-adv-x="1033" vert-adv-y="2048"  />

      
      <glyph glyph-name="uni0161" unicode="&#x0161;" d="M72 168L496 168Q633 168 633 262Q633 330 502 383Q405 422 309 461Q178 519 130 574Q74 637 74 733Q74 981 403 981L766 981L766 817L356 817Q250 817 250 733Q250 675 358 631Q461 589 564 548Q707 484 758 428Q815 364 815 268Q815 0 403 0L72 0L72 168M600 1583L762 1583L540 1272L332 1272L110 1583L272 1583L436 1374L600 1583Z"  horiz-adv-x="871" vert-adv-y="2048"  />

      
      <glyph glyph-name="uni017D" unicode="&#x017D;" d="M985 180L985 0L242 0Q33 0 33 160Q33 226 143 379L774 1255L113 1255L113 1432L758 1432Q967 1432 967 1272Q967 1204 858 1053L229 180L985 180M793 1911L955 1911L733 1600L525 1600L303 1911L465 1911L629 1702L793 1911Z"  horiz-adv-x="1280" vert-adv-y="2048"  />

      
      <glyph glyph-name="uni017E" unicode="&#x017E;" d="M621 981Q803 981 803 860Q803 799 745 733L250 168L807 168L807 0L219 0Q45 0 45 131Q45 186 117 268L596 815L84 815L84 981L621 981M657 1583L819 1583L597 1272L389 1272L167 1583L329 1583L493 1374L657 1583Z"  horiz-adv-x="995" vert-adv-y="2048"  />

      
      <glyph glyph-name="unia6" unicode="&#xa6;" d="M588 1457.94L588 577.31L438 577.31L438 1457.94L588 1457.94M588 491.94L588-388.69L438-388.69L438 491.94L588 491.94Z"  horiz-adv-x="1024" vert-adv-y="2048"  />

      
      <glyph glyph-name="unid0" unicode="&#xd0;" d="M385 174Q393 174 408.50 173Q424 172 432 172Q691 172 853 314Q1022 464 1022 719Q1022 983 844 1130Q679 1266 410 1266Q395 1266 320 1262L319 0L131 0L131 1432L377 1432Q543 1432 661 1407Q909 1354 1063 1163Q1217 972 1217 717Q1217 520 1121.50 358.50Q1026 197 854 96Q691 0 385 0L385 174M1115 610L1115 467L91 467L91 610L1115 610Z"  horiz-adv-x="1485" vert-adv-y="2048"  />

      
      <glyph glyph-name="unif0" unicode="&#xf0;" d="M565 121Q813 121 813 571Q813 751 749 873Q685 995 565 995Q443 995 380 883.50Q317 772 317 571Q317 363 380.50 242Q444 121 565 121M565-16Q341-16 218.50 133.50Q96 283 96 567Q96 837 218 985Q340 1133 520 1133Q602 1133 650.50 1116Q699 1099 750 1057Q678 1206 559 1317L383 1198L313 1298L463 1397Q388 1458 313 1491L395 1604Q494 1560 600 1487L768 1604L842 1503L698 1409Q1036 1108 1036 578Q1036 288 912.50 136Q789-16 565-16Z"  horiz-adv-x="1133" vert-adv-y="2048"  />

      
      <glyph glyph-name="unidd" unicode="&#xdd;" d="M461 0L461 549Q104 640 104 1042L104 1432L295 1432L295 1040Q295 715 555 715Q815 715 815 1040L815 1432L1006 1432L1006 1042Q1006 640 649 549L649 0L461 0M571 1499Q505 1529 505 1537Q505 1545 516 1557L745 1852Q755 1867 768 1858L921 1797Q932 1793 937 1788L958 1779Q991 1767 964 1744L637 1480Q629 1474 614 1478Q588 1490 571 1499Z"  horiz-adv-x="1218" vert-adv-y="2048"  />

      
      <glyph glyph-name="unifd" unicode="&#xfd;" d="M940 981L940 446Q940 71 610-10L610-436L434-436L434-10Q106 71 106 446L106 981L281 981L281 414Q281 302 346 229Q413 152 524 152Q635 152 702 228Q766 301 766 414L766 981L940 981M477 1107Q411 1137 411 1145Q411 1153 422 1165L651 1460Q661 1475 674 1466L827 1405Q838 1401 843 1396L864 1387Q897 1375 870 1352L543 1088Q535 1082 520 1086Q494 1098 477 1107Z"  horiz-adv-x="1050" vert-adv-y="2048"  />

      
      <glyph glyph-name="unide" unicode="&#xde;" d="M117-200L117 666Q117 808 133 887Q167 1054 294 1156Q421 1258 592 1258Q787 1258 925 1123Q1063 988 1063 793Q1063 590 923 459Q787 332 582 332L379 332L379 513L557 513Q693 513 778 586Q868 663 868 797Q868 916 787.50 997Q707 1078 588 1078Q450 1078 375 982Q307 896 307 754L307-200L117-200M137 0L137 1432L328 1432L328 0L137 0Z"  horiz-adv-x="1037" vert-adv-y="2048"  />

      
      <glyph glyph-name="unife" unicode="&#xfe;" d="M104-436L104 412Q104 538 117 606Q149 783 283 891Q417 999 598 999Q816 999 953 855Q1090 711 1090 492Q1090 284 953 136Q813-16 606-16Q458-16 340 51L340 240Q457 150 588 150Q734 150 824 251Q911 348 911 496Q911 641 826 736Q737 834 594 834Q448 834 362 733Q281 637 281 489L281-436L104-436M121 0L121 1432L297 1432L297 0L121 0Z"  horiz-adv-x="1118" vert-adv-y="2048"  />

      
      <glyph glyph-name="unid7" unicode="&#xd7;" d="M924 1221L924 680L1452 680L1452 541L924 541L924 0L782 0L782 541L254 541L254 680L782 680L782 1221L924 1221Z"  horiz-adv-x="1110" vert-adv-y="2048"  />

      
      <glyph glyph-name="unib9" unicode="&#xb9;" d="M707 743L707 625L121 625L121 743L334 743L334 1343L121 1300L121 1419L414 1497L504 1497L504 743L707 743Z"  horiz-adv-x="793" vert-adv-y="2048"  />

      
      <glyph glyph-name="unib2" unicode="&#xb2;" d="M680 748L680 625L80 625L80 688Q80 784 133 874Q186 964 348 1077Q450 1147 476 1182.50Q502 1218 502 1251Q502 1378 338 1378Q248 1378 109 1335L109 1460Q250 1499 365 1499Q516 1499 598 1439.50Q680 1380 680 1266Q680 1204 648 1153.50Q616 1103 574 1068Q532 1033 444 972Q326 888 289 838.50Q252 789 248 748L680 748Z"  horiz-adv-x="793" vert-adv-y="2048"  />

      
      <glyph glyph-name="unib3" unicode="&#xb3;" d="M164 1139Q344 1139 411.50 1160Q479 1181 479 1264Q479 1325 444.50 1351.50Q410 1378 322 1378Q252 1378 113 1348L113 1470Q242 1499 344 1499Q655 1499 655 1278Q655 1216 615 1164.50Q575 1113 502 1085Q581 1065 624.50 1011Q668 957 668 887Q668 614 313 614Q208 614 86 645L86 768Q240 737 313 737Q407 737 450.50 772Q494 807 494 883Q494 959 442 991.50Q390 1024 164 1024L164 1139Z"  horiz-adv-x="793" vert-adv-y="2048"  />

      
      <glyph glyph-name="unibd" unicode="&#xbd;" d="M707 743L707 625L121 625L121 743L334 743L334 1343L121 1300L121 1419L414 1497L504 1497L504 743L707 743M1210 1491L1388 1491L538 0L360 0L1210 1491M1636 124L1636 1L1036 1L1036 64Q1036 160 1089 250Q1142 340 1304 453Q1406 523 1432 558.50Q1458 594 1458 627Q1458 754 1294 754Q1204 754 1065 711L1065 836Q1206 875 1321 875Q1472 875 1554 815.50Q1636 756 1636 642Q1636 580 1604 529.50Q1572 479 1530 444Q1488 409 1400 348Q1282 264 1245 214.50Q1208 165 1204 124L1636 124Z"  horiz-adv-x="1749" vert-adv-y="2048"  />

      
      <glyph glyph-name="unibc" unicode="&#xbc;" d="M707 743L707 625L121 625L121 743L334 743L334 1343L121 1300L121 1419L414 1497L504 1497L504 743L707 743M1210 1491L1388 1491L538 0L360 0L1210 1491M1687 308L1687 191L1583 191L1583 1L1415 1L1415 191L987 191L987 289L1425 873L1583 873L1583 308L1687 308M1155 308L1415 308L1415 664L1155 308Z"  horiz-adv-x="1749" vert-adv-y="2048"  />

      
      <glyph glyph-name="unibe" unicode="&#xbe;" d="M164 1139Q344 1139 411.50 1160Q479 1181 479 1264Q479 1325 444.50 1351.50Q410 1378 322 1378Q252 1378 113 1348L113 1470Q242 1499 344 1499Q655 1499 655 1278Q655 1216 615 1164.50Q575 1113 502 1085Q581 1065 624.50 1011Q668 957 668 887Q668 614 313 614Q208 614 86 645L86 768Q240 737 313 737Q407 737 450.50 772Q494 807 494 883Q494 959 442 991.50Q390 1024 164 1024L164 1139M1210 1491L1388 1491L538 0L360 0L1210 1491M1687 308L1687 191L1583 191L1583 1L1415 1L1415 191L987 191L987 289L1425 873L1583 873L1583 308L1687 308M1155 308L1415 308L1415 664L1155 308Z"  horiz-adv-x="1749" vert-adv-y="2048"  />

      
      <glyph glyph-name="uniad" unicode="&#xad;" d="M772 565L772 411L-116 411L-116 565L772 565Z"  horiz-adv-x="900" vert-adv-y="2048"  />

      
      <glyph glyph-name="uniaf" unicode="&#xaf;" d="M772 1445L772 1291L-116 1291L-116 1445L772 1445Z"  horiz-adv-x="900" vert-adv-y="2048"  />

      
      <glyph glyph-name="unib7" unicode="&#xb7;" d="M153.00 674.70Q153.00 718.05 181.90 746.95Q210.79 775.84 254.14 775.84Q296.64 775.84 325.54 746.52Q354.44 717.20 354.44 674.70Q354.44 633.05 325.12 604.57Q295.79 576.10 254.14 576.10Q212.49 576.10 182.75 604.57Q153.00 633.05 153.00 674.70Z"  horiz-adv-x="485" vert-adv-y="2048"  />

      
      <glyph glyph-name="unia4" unicode="&#xa4;" d="M831 535L944 422L856 334L743 446Q655 383 551 383Q445 383 356 446L244 334L156 422L268 535Q205 623 205 729Q205 834 268 922L156 1036L244 1124L356 1010Q445 1073 551 1073Q655 1073 743 1010L856 1124L944 1036L831 922Q895 834 895 729Q895 623 831 535M551 526Q635 526 694.50 585.50Q754 645 754 729Q754 814 694.50 873Q635 932 551 932Q467 932 406.50 872.50Q346 813 346 729Q346 645 406.50 585.50Q467 526 551 526Z"  horiz-adv-x="1100" vert-adv-y="2048"  />

      
      <glyph glyph-name="uni0100" unicode="&#x0100;" d="M762 489L555 1268L344 489L762 489M899 0L801 344L305 344L207 0L10 0L453 1491L690 1491L1124 0L899 0M839 1761L839 1622L289 1622L289 1761L839 1761Z"  horiz-adv-x="1137" vert-adv-y="2048"  />

      
      <glyph glyph-name="uni0101" unicode="&#x0101;" d="M694 567L575 567Q432 567 360.50 506.50Q289 446 289 326Q289 228 332.50 179.50Q376 131 463 131Q573 131 633.50 201Q694 271 694 391L694 567M748 168Q640-16 412-16Q253-16 164.50 73.50Q76 163 76 324Q76 490 167 571.50Q258 653 385 673.50Q512 694 694 694L694 831Q694 1034 477 1034Q352 1034 172 981L172 1130Q353 1180 516 1180Q708 1180 807.50 1087.50Q907 995 907 815L907 0L791 0L748 168M792 1495L792 1356L242 1356L242 1495L792 1495Z"  horiz-adv-x="1049" vert-adv-y="2048"  />

      
      <glyph glyph-name="uni0102" unicode="&#x0102;" d="M922 0L922 657L365 657L365 838L922 838L922 895Q922 1280 614 1280Q307 1280 307 895L307 0L117 0L117 899Q117 1143 242 1294Q375 1456 614 1456Q853 1456 987 1294Q1112 1143 1112 899L1112 0L922 0M995 1725Q952 1599 884 1537Q804 1463 678 1463Q446 1463 360 1725L509 1725Q557 1596 678 1596Q746 1596 795 1643Q829 1675 848 1725L995 1725Z"  horiz-adv-x="1355" vert-adv-y="2048"  />

      
      <glyph glyph-name="uni0103" unicode="&#x0103;" d="M870 0L870 489Q870 637 789 733Q703 834 557 834Q414 834 326 735Q242 641 242 496Q242 348 329 251Q419 150 565 150Q692 150 811 240L811 51Q693-16 545-16Q338-16 199 136Q63 284 63 492Q63 711 200 855Q337 999 555 999Q731 999 866.50 890.50Q1002 782 1035 611Q1047 545 1047 412L1047 0L870 0M796 1334Q753 1208 685 1146Q605 1072 479 1072Q247 1072 161 1334L310 1334Q358 1205 479 1205Q547 1205 596 1252Q630 1284 649 1334L796 1334Z"  horiz-adv-x="974" vert-adv-y="2048"  />

      
      <glyph glyph-name="uni0104" unicode="&#x0104;" d="M762 489L555 1268L344 489L762 489M899 0L801 344L305 344L207 0L10 0L453 1491L690 1491L1124 0Q1044-67 1044-147Q1044-238 1126-238Q1160-238 1190-229L1190-334Q1149-344 1067-344Q986-344 935.50-301.50Q885-259 885-184Q885-126 915.50-80Q946-34 1008 0L899 0Z"  horiz-adv-x="1137" vert-adv-y="2048"  />

      
      <glyph glyph-name="uni0105" unicode="&#x0105;" d="M694 567L575 567Q432 567 360.50 506.50Q289 446 289 326Q289 228 332.50 179.50Q376 131 463 131Q572 131 633 200Q694 269 694 391L694 567M748 168Q640-16 412-16Q252-16 164 73.50Q76 163 76 324Q76 500 193 597Q310 694 679 694L694 694L694 831Q694 1034 477 1034Q355 1034 172 981L172 1130Q352 1180 516 1180Q711 1180 809 1088.50Q907 997 907 815L907 0Q827-67 827-147Q827-238 909-238Q943-238 973-229L973-334Q932-344 850-344Q769-344 718.50-301.50Q668-259 668-184Q668-126 698.50-80Q729-34 791 0L748 168Z"  horiz-adv-x="1049" vert-adv-y="2048"  />

      
      <glyph glyph-name="uni0106" unicode="&#x0106;" d="M958 1262Q932 1264 889 1264Q614 1264 446 1131Q262 985 262 717Q262 452 447 304Q615 169 879 169Q918 169 958 172L958 0L903 0Q743 0 623 25Q375 77 221.50 269.50Q68 462 68 717Q68 971 221.50 1162.50Q375 1354 623 1407Q743 1432 958 1432L958 1262M688 1499Q622 1529 622 1537Q622 1545 633 1557L862 1852Q872 1867 885 1858L1038 1797Q1049 1793 1054 1788L1075 1779Q1108 1767 1081 1744L754 1480Q746 1474 731 1478Q705 1490 688 1499Z"  horiz-adv-x="1413" vert-adv-y="2048"  />

      
      <glyph glyph-name="uni0107" unicode="&#x0107;" d="M725 813L649 813Q481 813 371 737Q244 650 244 489Q244 329 371 242Q482 166 649 166L725 166L725 0L637 0Q391 0 234 120Q61 253 61 492Q61 658 164 788Q267 918 429 960Q509 981 637 981L725 981L725 813M506 1171Q440 1201 440 1209Q440 1217 451 1229L680 1524Q690 1539 703 1530L856 1469Q867 1465 872 1460L893 1451Q926 1439 899 1416L572 1152Q564 1146 549 1150Q523 1162 506 1171Z"  horiz-adv-x="1080" vert-adv-y="2048"  />

      
      <glyph glyph-name="uni010C" unicode="&#x010C;" d="M958 1262Q932 1264 889 1264Q614 1264 446 1131Q262 985 262 717Q262 452 447 304Q615 169 879 169Q918 169 958 172L958 0L903 0Q743 0 623 25Q375 77 221.50 269.50Q68 462 68 717Q68 971 221.50 1162.50Q375 1354 623 1407Q743 1432 958 1432L958 1262M891 1911L1053 1911L831 1600L623 1600L401 1911L563 1911L727 1702L891 1911Z"  horiz-adv-x="1413" vert-adv-y="2048"  />

      
      <glyph glyph-name="uni010D" unicode="&#x010D;" d="M725 813L649 813Q481 813 371 737Q244 650 244 489Q244 329 371 242Q482 166 649 166L725 166L725 0L637 0Q391 0 234 120Q61 253 61 492Q61 658 164 788Q267 918 429 960Q509 981 637 981L725 981L725 813M709 1583L871 1583L649 1272L441 1272L219 1583L381 1583L545 1374L709 1583Z"  horiz-adv-x="1080" vert-adv-y="2048"  />

      
      <glyph glyph-name="uni010E" unicode="&#x010E;" d="M385 174Q393 174 408.50 173Q424 172 432 172Q691 172 853 314Q1022 464 1022 719Q1022 983 844 1130Q679 1266 410 1266Q395 1266 320 1262L319 0L131 0L131 1432L377 1432Q543 1432 661 1407Q909 1354 1063 1163Q1217 972 1217 717Q1217 520 1121.50 358.50Q1026 197 854 96Q691 0 385 0L385 174M913 1911L1075 1911L853 1600L645 1600L423 1911L585 1911L749 1702L913 1911Z"  horiz-adv-x="1485" vert-adv-y="2048"  />

      
      <glyph glyph-name="uni010F" unicode="&#x010F;" d="M872 0L827 143Q735-16 512-16Q305-16 200.50 130.50Q96 277 96 588Q96 849 207.50 1014.50Q319 1180 524 1180Q692 1180 776 1079L776 1583L989 1583L989 0L872 0M783 530L782 596Q782 856 723.50 947Q665 1038 557 1038Q437 1038 377 927Q317 816 317 594Q317 361 375 245Q433 129 549 129Q662 129 722.50 213Q783 297 783 530M1161 1126L1095 1190Q1197 1262 1212 1360Q1152 1361 1122.50 1390.50Q1093 1420 1093 1477Q1093 1529 1128 1563Q1163 1597 1216 1597Q1276 1597 1306.50 1557.50Q1337 1518 1337 1440Q1337 1344 1293 1265.50Q1249 1187 1161 1126Z"  horiz-adv-x="1337" vert-adv-y="2048"  />

      
      </font>
</defs>
</svg>
